<svg xmlns="http://www.w3.org/2000/svg" viewBox="0 0 700.07 412.33"><defs><style>.cls-1{fill:#263238;}.cls-2{fill:#333;}.cls-3{fill:#f5f5f5;}.cls-4{fill:#fff;}.cls-5{fill:#ebebeb;}.cls-6{fill:#f7a440;}.cls-7{opacity:0.6;}.cls-8{fill:#fafafa;}.cls-9{opacity:0.4;}.cls-10{fill:#ffbe9d;}.cls-11{opacity:0.2;}.cls-12{fill:#e0e0e0;}.cls-13{fill:#606060;}.cls-14{opacity:0.3;}.cls-15{fill:#455a64;}.cls-16{fill:#eb996e;}</style></defs><g id="Layer_2" data-name="Layer 2"><g id="Floor"><path class="cls-1" d="M700.07,412.07c0,.15-156.73.26-350,.26s-350-.11-350-.26,156.7-.26,350.05-.26S700.07,411.93,700.07,412.07Z"/></g><g id="Device"><path class="cls-2" d="M439.08,412.07H578.25c16.82-.07,31-14.41,31-31.23L607.73,30.33A30.47,30.47,0,0,0,577.13,0L437.32.65A30.45,30.45,0,0,0,407,31.23l1.48,350.52A30.45,30.45,0,0,0,439.08,412.07Z"/><path class="cls-3" d="M437.52,14l27.1-.13a6.72,6.72,0,0,1,6.61,6.85l0,4.92a6.72,6.72,0,0,0,6.61,6.85l52.83-.25a6.74,6.74,0,0,0,6.56-6.91l0-4.91a6.75,6.75,0,0,1,6.55-6.92l9.53,0,23.73-.11a21.34,21.34,0,0,1,21.43,21.24l1.44,342.13a21.33,21.33,0,0,1-21.23,21.42l-139.53.64a21.33,21.33,0,0,1-21.43-21.24L416.29,35.38A21.32,21.32,0,0,1,437.52,14Z"/><path class="cls-3" d="M496.74,334.1c.15,4.13.31,8,.43,11.23h-20L479.58,333Z"/><path class="cls-3" d="M578.19,339.25l-.17,6.08H499.17c-.13-3.42-.28-7.2-.43-11.1Z"/><polygon class="cls-3" points="478.58 332.95 476.11 345.33 439.16 345.33 439.6 330.49 478.58 332.95"/><polygon class="cls-3" points="494.73 159.96 487.75 119.45 506.05 118.09 506.05 159.96 494.73 159.96"/><polygon class="cls-3" points="579.84 316.76 599.7 324.54 599.76 338.61 579.25 337.31 579.84 316.76"/><polygon class="cls-3" points="579.93 313.6 581.02 275.87 581.03 275.87 581.03 262.56 599.45 264.51 599.69 321.32 579.94 313.58 579.93 313.6"/><polygon class="cls-3" points="581.03 232.86 599.3 230.44 599.44 261.5 581.03 259.55 581.03 232.86"/><polygon class="cls-3" points="444.85 263.12 445.62 273.94 467.2 276.26 465.53 284.82 441.03 282.97 441.4 270.7 439.44 262.58 444.85 263.12"/><polygon class="cls-3" points="483.74 286.19 466.53 284.89 470.28 265.69 485.3 267.21 483.74 286.19"/><polygon class="cls-3" points="483.58 288.19 482.26 304.2 479.93 326.16 478.97 330.97 439.66 328.49 440.97 284.97 483.58 288.19"/><path class="cls-3" d="M580.85,229.86l18.44-2.44-.23-55.6L550.34,163H494.86l-2,24.28,57.7,5.54-.19,2-57.67-5.55-3.82,46.53,58.26-7.61.39,3-58.91,7.7-2.25,27.49L548,272.53l32,2.27V232.86l-30.31-17.69,1.51-2.59ZM549,269l3.2-47.27,24.74,13.16c-.23,1.29,0,35.87,0,35.87Z"/><polygon class="cls-3" points="446.87 263.33 469.28 265.59 467.58 274.29 447.49 272.13 446.87 263.33"/><path class="cls-3" d="M496.45,326.69q.1,2.73.21,5.4L480,331l.85-4.31Z"/><polygon class="cls-3" points="532.38 159.96 529.44 146.64 507.05 146.64 507.05 118.02 577.07 112.83 577.07 139.7 598.94 144.65 599.04 168.77 550.61 159.96 532.38 159.96"/><path class="cls-3" d="M485.66,80.33l.59-2.45L459.51,67.3l17.4-34.92a6,6,0,0,0,1,.08l29.55-.14-.81,48.87Z"/><path class="cls-3" d="M445.13,61.6l0-47.67,19.46-.09a6.72,6.72,0,0,1,6.61,6.85l0,4.92a7,7,0,0,0,2.86,5.64L456.71,66.19Z"/><path class="cls-3" d="M583.48,58.22l-9-44.89-21.15.1-5.41,0-2.26,50.19ZM571.71,18.54l6.16,36.77-28.12,4.11.72-40.88Z"/><path class="cls-3" d="M544.63,63.8v.42c0,3.92-.13,11-.19,18.51l-36.83-1.5.81-48.91,22.28-.11a6.74,6.74,0,0,0,6.56-6.91l0-4.91a6.75,6.75,0,0,1,6.55-6.92h3.12l-2.26,50.33Z"/><path class="cls-3" d="M586.46,57.79l-8.92-44.45a21.33,21.33,0,0,1,20.94,21.22l.09,22.16-.09-.65Z"/><polygon class="cls-3" points="580.07 112.61 598.8 111.22 598.93 141.57 580.07 137.31 580.07 112.61"/><polygon class="cls-3" points="586.65 58.77 598.57 57.06 598.78 106.21 596.22 106.4 586.65 58.77"/><polygon class="cls-3" points="548.82 313.02 548.51 273.57 580.02 275.8 578.91 314.45 548.82 313.02"/><path class="cls-3" d="M543,303.92,498.4,325.3c-.53-14-1-27-1-27.87l-1-.05-.47-.94c-.64.31-.64.31-.3,9.84.18,5.31.44,12.38.71,19.46H481l2.28-21.45,3-37,58.3,5.88Z"/><polygon class="cls-3" points="433.64 238.44 434.14 233.23 487.63 238.8 485.38 266.21 439.2 261.55 433.64 238.44"/><polygon class="cls-3" points="507.05 149.64 527.03 149.64 529.31 159.96 507.05 159.96 507.05 149.64"/><path class="cls-3" d="M439.09,182.07l52.78,5.07L494,161.48l-2-11.82-50,3.46Zm49.54,1.62-47.2-5.6L444,156.75,487.42,154l2.68,7.46Z"/><polygon class="cls-3" points="436.7 206.75 438.9 184.06 491.71 189.13 489.73 213.29 436.7 206.75"/><polygon class="cls-3" points="579.19 339.31 599.68 340.61 599.76 339.28 599.79 345.33 579.02 345.33 579.19 339.31"/><path class="cls-3" d="M416.65,50.33l-.3.77-.06-15.72A21.33,21.33,0,0,1,437.52,14l6.64,0,0,47.28Z"/><path class="cls-3" d="M498.66,332.22l79.59,5,.6-20.88h0v0l0-.9-31-1.47-.32-40.5-1.91-.19L544,304.56l-45.55,21.83C498.51,328.33,498.59,330.28,498.66,332.22Zm78.27-.24-71.73-3.89L533.47,315l43.46,3Z"/><path class="cls-3" d="M429.6,102.84l-1.86-11c16.33-5.83,17.46-22.87,17.41-28L455.82,68l-16.06,32.23Z"/><polygon class="cls-3" points="487.88 235.81 465.67 233.5 470.05 213.88 489.48 216.28 487.88 235.81"/><polygon class="cls-3" points="441.82 119.78 483.3 119.78 486.74 119.52 491.43 146.69 442.19 150.09 443.33 138.28 438.49 120.84 441.82 119.78"/><path class="cls-3" d="M475.21,114.78,483.9,79.1l-25.28-10-16.3,32.73.51,13Zm3.56-32.27-6.39,26.88-25.56,1-2.16-8.86L459.6,73.07Z"/><polygon class="cls-3" points="436.38 271.22 435.62 296.69 417.64 295.68 417.59 296.68 435.58 297.69 434.67 328.17 417.68 327.1 417.55 329.09 434.61 330.17 434.15 345.33 417.6 345.33 417.24 260.34 434.17 262.05 436.38 271.22"/><path class="cls-3" d="M545.62,64.66l38.06-5.46,9.52,47.42-47.75,3.54C545.26,102.86,545.43,80.46,545.62,64.66Z"/><polygon class="cls-3" points="483.02 114.78 477.27 114.78 485.42 81.32 506.6 82.19 506.09 113.08 483.02 114.78"/><path class="cls-3" d="M599.89,369.67l0,7c0,.21,0,.42,0,.64Z"/><path class="cls-3" d="M544.48,110.23,507.09,113l.51-30.77,36.83,1.5C544.35,94.14,544.32,105.24,544.48,110.23Z"/><polygon class="cls-3" points="436.42 209.74 469.05 213.76 464.67 233.39 434.43 230.25 436.42 209.74"/><path class="cls-3" d="M427.57,90.78l-2.09-12.4-9,.7-.11-26.71,27.78,11C444.71,82.16,432.9,88.77,427.57,90.78Z"/><polygon class="cls-3" points="438.27 138.72 437.13 150.44 416.78 151.85 416.68 127.72 433.72 122.34 438.27 138.72"/><path class="cls-3" d="M428.58,238.79,433.93,261l-16.7-1.69-.1-23.31c5.13-1.35,9.6-2.44,12-2.91Z"/><polygon class="cls-3" points="439.85 115.16 416.65 122.49 416.6 109.3 439.38 103.41 439.85 115.16"/><path class="cls-3" d="M429.42,230.06c-1.87.28-5.41,1-12.3,2.85l-.22-51,17,1.64Z"/><polygon class="cls-3" points="434.12 181.59 416.9 179.93 416.79 154.86 436.84 153.47 434.12 181.59"/><path class="cls-3" d="M425.65,91.42c-3.27,1-6.3,1.76-9.12,2.32l0-12.65,7.33-.58Z"/><path class="cls-3" d="M427.66,103.34l-11.08,2.86,0-11.43c2.86-.58,5.95-1.35,9.27-2.36Z"/><path class="cls-4" d="M599.68,340.61l.09-1.33v-.67l-20.51-1.3.59-20.55,19.86,7.78v-3.22l-19.75-7.74v0L581,275.87h0V262.56l18.42,1.95v-3L581,259.55V232.86l18.28-2.41,0-3-18.44,2.44-29.62-17.28-1.51,2.59L580,232.86V274.8l-32-2.27-61.66-6.22,2.25-27.49,58.91-7.7-.39-3-58.26,7.61,3.82-46.53,57.67,5.55.19-2-57.7-5.54,2-24.28h55.48l48.72,8.86,0-3L550.61,160H532.38l-2.94-13.32H507.05V118l70-5.19V139.7l21.87,5v-3.08l-18.86-4.27V112.61l18.73-1.39,0-5-2.57.19-9.55-47.63,11.91-1.71v-.34l-.09-.65-12,1.72-8.92-44.45-.49,0h-2.58l9,44.89-37.83,5.43,2.26-50.19h-1l-2.26,50.33h0v.42c0,3.92-.13,11-.19,18.51l-36.83-1.5.81-48.91h-1l-.81,48.87-20.95-.86.59-2.45L459.51,67.3l17.4-34.92a6.25,6.25,0,0,1-2.79-1.13L456.71,66.19,445.13,61.6l0-47.67h-1l0,47.28L416.65,50.33l-.3.77v1.27l27.78,11c.57,18.8-11.24,25.41-16.57,27.42l-2.09-12.4-9,.7v2l7.33-.58,1.84,10.91c-3.27,1-6.3,1.76-9.12,2.32v1c2.86-.58,5.95-1.35,9.27-2.36l1.85,10.93-11.08,2.86,0,3.1,22.78-5.89.47,11.75-23.2,7.33,0,5.23,17-5.38,4.55,16.39-1.14,11.71-20.35,1.41v3l20-1.39-2.72,28.12-17.22-1.66v2l17,1.64-4.5,46.48c-1.87.28-5.41,1-12.3,2.85V236c5.13-1.35,9.6-2.44,12-2.91l-.55,5.68L433.93,261l-16.7-1.69v1l16.93,1.71,2.21,9.17-.76,25.47-18-1-.05,1,18,1-.92,30.48-17-1.08-.13,2,17.06,1.08-.45,15.16h5l.44-14.84,39,2.46-2.47,12.38h1L479.58,333l17.16,1.09c.15,4.13.31,8,.43,11.23h2c-.13-3.42-.28-7.2-.43-11.1l79.45,5-.17,6.08h1l.17-6ZM480,331l.85-4.31,15.62,0q.1,2.73.21,5.4Zm-40.32-2.55L441,285l42.61,3.22-1.32,16-2.33,22L479,331Zm27.92-54.2-20.09-2.16-.62-8.8,22.41,2.26Zm17.72-7.08-1.56,19-17.21-1.29,3.75-19.21Zm-43.9,3.49-2-8.12,5.41.54.77,10.82,21.58,2.32-1.67,8.56L441,283Zm48.08-54.42-1.6,19.53-22.21-2.31,4.38-19.62Zm-55.05,14,2-20.51,32.63,4-4.38,19.63Zm8.9-92-4.84-17.44,3.33-1.06H483.3l3.44-.26,4.69,27.17-49.24,3.4ZM455.82,68l-16.06,32.23-10.16,2.63-1.86-11c16.33-5.83,17.46-22.87,17.41-28ZM483.9,79.1l-8.69,35.68H442.83l-.51-13,16.3-32.73Zm22.7,3.09-.51,30.89L483,114.78h-5.75l8.14-33.46Zm37.83,1.54c-.08,10.41-.11,21.51.05,26.5L507.09,113l.51-30.77Zm48.77,22.89-47.75,3.54c-.19-7.3,0-29.7.17-45.5l38.06-5.46Zm-87.15,11.47V160H494.73l-7-40.51ZM529.31,160H507.05V149.64h20Zm-37.44,27.18-52.78-5.07,2.81-28.95,50-3.46,2,11.82Zm-.16,2-2,24.16-53-6.54,2.2-22.69Zm-6.33,77.08-46.18-4.66-5.56-23.11.5-5.21,53.49,5.57Zm.92,1.1,58.3,5.88L543,303.92,498.4,325.3c-.53-14-1-27-1-27.87l-1-.05-.47-.94c-.64.31-.64.31-.3,9.84.18,5.31.44,12.38.71,19.46H481l2.28-21.45ZM580,275.8l-1.11,38.65L548.82,313l-.31-39.46Zm-1.77,61.45-79.59-5c-.07-1.94-.15-3.89-.22-5.83L544,304.56l1.61-31.27,1.91.19.32,40.5,31,1.47,0,.9v0h0Z"/><polygon class="cls-5" points="533.47 314.98 576.93 318.02 576.93 331.98 505.2 328.09 533.47 314.98"/><polygon class="cls-5" points="443.95 156.75 487.42 154 490.1 161.46 488.63 183.69 441.43 178.09 443.95 156.75"/><path class="cls-5" d="M578.69,398.11l-139.53.64a21.33,21.33,0,0,1-21.43-21.24l-.13-32.18H599.79l.1,24.34v7.66A21.32,21.32,0,0,1,578.69,398.11Z"/><polygon class="cls-5" points="549.75 59.42 550.47 18.54 571.71 18.54 577.87 55.31 549.75 59.42"/><polygon class="cls-5" points="446.82 110.35 444.66 101.49 459.6 73.07 478.77 82.51 472.38 109.39 446.82 110.35"/><path class="cls-5" d="M576.93,234.92c-.23,1.29,0,35.87,0,35.87L549,269l3.2-47.27Z"/><polygon class="cls-5" points="483.74 263 485.21 241.57 437.29 235.41 437.29 239.11 443.08 258.82 483.74 263"/><path class="cls-6" d="M519.18,85.27A5.84,5.84,0,1,0,525,79.43,5.85,5.85,0,0,0,519.18,85.27Z"/><g class="cls-7"><path class="cls-4" d="M519.19,85a5.84,5.84,0,1,0,6.08-5.58A5.84,5.84,0,0,0,519.19,85Z"/></g><circle class="cls-6" cx="525.02" cy="85.07" r="3.88"/><path class="cls-6" d="M434.79,318.42a2.5,2.5,0,1,0,2.5-2.5A2.5,2.5,0,0,0,434.79,318.42Z"/><path class="cls-6" d="M438.79,317.61l.6-14,42.13,2.05a6.37,6.37,0,0,0,3.18-.68l59.75-30.18a4.3,4.3,0,0,0,2.37-3.64L555,113.44a2.63,2.63,0,0,0-2.83-2.76l-25.61,1.89v-28h-3V113a2.62,2.62,0,0,0,2.83,2.63l25.59-1.89L543.83,271a1.32,1.32,0,0,1-.73,1.11l-59.75,30.18a3.39,3.39,0,0,1-1.69.36l-42.47-2.06a2.69,2.69,0,0,0-1.92.68,2.62,2.62,0,0,0-.86,1.85l-.62,14.33Z"/><circle class="cls-6" cx="550.07" cy="181.93" r="7.56"/><circle class="cls-8" cx="550.07" cy="181.93" r="5.25"/><path class="cls-6" d="M544.44,181.93a5.63,5.63,0,1,1,5.63,5.63A5.63,5.63,0,0,1,544.44,181.93Zm.75,0a4.88,4.88,0,1,0,4.88-4.87A4.89,4.89,0,0,0,545.19,181.93Z"/><path class="cls-6" d="M505.53,150.22h36a3.17,3.17,0,0,1,3.17,3.17v13a3.17,3.17,0,0,1-3.17,3.17h-.42v3.11l-3.6-3.11h-32a3.17,3.17,0,0,1-3.17-3.17v-13A3.17,3.17,0,0,1,505.53,150.22Z"/><g class="cls-9"><path class="cls-4" d="M505.53,150.22h36a3.17,3.17,0,0,1,3.17,3.17v13a3.17,3.17,0,0,1-3.17,3.17h-.42v3.11l-3.6-3.11h-32a3.17,3.17,0,0,1-3.17-3.17v-13A3.17,3.17,0,0,1,505.53,150.22Z"/></g><path class="cls-4" d="M509,159.7a2.17,2.17,0,1,1,2.17,2.08A2.07,2.07,0,0,1,509,159.7Zm3.75,0a1.59,1.59,0,1,0-1.58,1.57A1.53,1.53,0,0,0,512.71,159.7Z"/><path class="cls-4" d="M517.29,160.2a1.5,1.5,0,0,1-1.56,1.57,1.29,1.29,0,0,1-1.1-.52v.49h-.54v-4.32h.56v1.7a1.32,1.32,0,0,1,1.08-.49A1.49,1.49,0,0,1,517.29,160.2Zm-.57,0a1,1,0,1,0-1,1.08A1,1,0,0,0,516.72,160.2Z"/><path class="cls-4" d="M517,162.71l.18-.43a.66.66,0,0,0,.45.15c.3,0,.46-.19.46-.54v-3.23h.56v3.22a.92.92,0,0,1-1,1A1.05,1.05,0,0,1,517,162.71Zm1-5a.38.38,0,1,1,.38.36A.36.36,0,0,1,518,157.7Z"/><path class="cls-4" d="M522.48,160.38H520a1,1,0,0,0,1.12.9,1.16,1.16,0,0,0,.89-.37l.31.36a1.68,1.68,0,0,1-2.87-1.07,1.54,1.54,0,1,1,3.07,0A1,1,0,0,1,522.48,160.38ZM520,160h2a1,1,0,0,0-2,0Z"/><path class="cls-4" d="M523,160.2a1.54,1.54,0,0,1,1.63-1.57,1.39,1.39,0,0,1,1.26.65l-.43.28a.93.93,0,0,0-.83-.44,1.08,1.08,0,0,0,0,2.16,1,1,0,0,0,.83-.44l.43.27a1.39,1.39,0,0,1-1.26.66A1.54,1.54,0,0,1,523,160.2Z"/><path class="cls-4" d="M528.36,161.56a1.07,1.07,0,0,1-.67.21.88.88,0,0,1-1-1v-1.69h-.52v-.46h.52V158h.56v.68h.88v.46h-.88v1.66c0,.34.17.52.48.52a.74.74,0,0,0,.44-.14Z"/><path class="cls-4" d="M528.94,157.7a.36.36,0,0,1,.37-.36.36.36,0,0,1,.38.35.36.36,0,0,1-.38.37A.35.35,0,0,1,528.94,157.7Zm.1,1h.55v3.08H529Z"/><path class="cls-4" d="M533.38,158.66,532,161.74h-.57l-1.35-3.08h.58l1.06,2.47,1.08-2.47Z"/><path class="cls-4" d="M536.59,160.38h-2.5a1,1,0,0,0,1.12.9,1.16,1.16,0,0,0,.89-.37l.31.36a1.68,1.68,0,0,1-2.87-1.07,1.5,1.5,0,0,1,1.54-1.57,1.48,1.48,0,0,1,1.52,1.58A1,1,0,0,1,536.59,160.38Zm-2.5-.4h2a1,1,0,0,0-2,0Z"/><path class="cls-6" d="M518.45,69.44h0l0,0a16.46,16.46,0,0,0,1.08,1.44l4.28,5.66a1.34,1.34,0,0,0,2.15,0l4.35-5.75c.36-.51.72-.86,1-1.34l0,0h0a7.49,7.49,0,1,0-12.91,0Zm3.16-3.82a3.3,3.3,0,1,1,3.3,3.3A3.29,3.29,0,0,1,521.61,65.62Z"/><path class="cls-1" d="M463.27,360.53h-1.39V360h3.36v.51h-1.39v3.56h-.58Z"/><path class="cls-1" d="M465.19,362.55a1.6,1.6,0,1,1,1.6,1.58A1.53,1.53,0,0,1,465.19,362.55Zm2.64,0a1,1,0,1,0-1,1.09A1,1,0,0,0,467.83,362.55Z"/><path class="cls-1" d="M470.9,363.91a1,1,0,0,1-.68.22.88.88,0,0,1-1-1v-1.69h-.53V361h.53v-.67h.55V361h.89v.46h-.89v1.67a.46.46,0,0,0,.49.52.7.7,0,0,0,.43-.15Z"/><path class="cls-1" d="M474,362.23v1.86h-.53v-.4a1.15,1.15,0,0,1-1,.44c-.69,0-1.14-.37-1.14-.91s.32-.9,1.24-.9h.89v-.11c0-.47-.28-.75-.83-.75a1.53,1.53,0,0,0-1,.34l-.23-.42a2,2,0,0,1,1.27-.4C473.54,361,474,361.39,474,362.23Zm-.55.92v-.43h-.86c-.56,0-.71.22-.71.48s.25.5.68.5A.9.9,0,0,0,473.46,363.15Z"/><path class="cls-1" d="M475.05,359.78h.56v4.31h-.56Z"/><path class="cls-1" d="M481.14,359.78v4.31h-.53v-.49a1.31,1.31,0,0,1-1.1.53,1.58,1.58,0,0,1,0-3.15,1.31,1.31,0,0,1,1.07.5v-1.7Zm-.55,2.77a1,1,0,1,0-1,1.09A1,1,0,0,0,480.59,362.55Z"/><path class="cls-1" d="M482.1,360.06a.37.37,0,0,1,.38-.37.37.37,0,0,1,.38.36.38.38,0,0,1-.76,0Zm.1.95h.56v3.08h-.56Z"/><path class="cls-1" d="M483.43,363.77l.23-.44a2.06,2.06,0,0,0,1.09.32c.51,0,.73-.16.73-.42,0-.69-2-.1-2-1.32,0-.56.49-.93,1.28-.93a2.3,2.3,0,0,1,1.13.28l-.24.44a1.62,1.62,0,0,0-.89-.24c-.49,0-.73.18-.73.42,0,.73,2,.14,2,1.33,0,.56-.52.92-1.34.92A2.25,2.25,0,0,1,483.43,363.77Z"/><path class="cls-1" d="M488.47,363.91a1,1,0,0,1-.68.22.89.89,0,0,1-1-1v-1.69h-.52V361h.52v-.67h.56V361h.89v.46h-.89v1.67a.46.46,0,0,0,.49.52.7.7,0,0,0,.43-.15Z"/><path class="cls-1" d="M491.58,362.23v1.86h-.53v-.4a1.16,1.16,0,0,1-1,.44c-.7,0-1.14-.37-1.14-.91s.32-.9,1.24-.9H491v-.11c0-.47-.27-.75-.82-.75a1.53,1.53,0,0,0-1,.34l-.23-.42a2,2,0,0,1,1.27-.4C491.11,361,491.58,361.39,491.58,362.23Zm-.56.92v-.43h-.86c-.55,0-.71.22-.71.48s.26.5.68.5A.89.89,0,0,0,491,363.15Z"/><path class="cls-1" d="M495.54,362.32v1.77H495v-1.71c0-.6-.3-.9-.83-.9a.92.92,0,0,0-1,1v1.58h-.55V361h.53v.47a1.31,1.31,0,0,1,1.11-.5A1.2,1.2,0,0,1,495.54,362.32Z"/><path class="cls-1" d="M496.31,362.55a1.54,1.54,0,0,1,1.63-1.57,1.37,1.37,0,0,1,1.25.66l-.42.27a1,1,0,0,0-.84-.44,1.09,1.09,0,0,0,0,2.17,1,1,0,0,0,.84-.44l.42.26a1.35,1.35,0,0,1-1.25.67A1.55,1.55,0,0,1,496.31,362.55Z"/><path class="cls-1" d="M502.64,362.74h-2.5a1,1,0,0,0,1.12.9,1.16,1.16,0,0,0,.89-.37l.3.36a1.68,1.68,0,0,1-2.87-1.08,1.51,1.51,0,0,1,1.55-1.57,1.48,1.48,0,0,1,1.52,1.59A1,1,0,0,1,502.64,362.74Zm-2.5-.4h2a1,1,0,0,0-2,0Z"/><path class="cls-1" d="M462.59,368v1.8h1.94v7.91h2.25V368Z"/><path class="cls-1" d="M472.63,367.85c-2.39,0-4.16,1.82-4.16,5s1.77,5,4.16,5,4.16-1.81,4.16-5S475,367.85,472.63,367.85Zm0,8.14c-1.11,0-1.89-.91-1.89-3.12s.78-3.12,1.89-3.12,1.9.92,1.9,3.12S473.75,376,472.63,376Z"/><path class="cls-1" d="M482.05,367.85c-2.39,0-4.16,1.82-4.16,5s1.77,5,4.16,5,4.16-1.81,4.16-5S484.45,367.85,482.05,367.85Zm0,8.14c-1.11,0-1.89-.91-1.89-3.12s.78-3.12,1.89-3.12,1.9.92,1.9,3.12S483.17,376,482.05,376Z"/><path class="cls-1" d="M501.24,370.15a3.37,3.37,0,0,0-2.69,1.22,2.79,2.79,0,0,0-2.45-1.22,3.07,3.07,0,0,0-2.35,1v-.86h-2.06v7.47h2.16V374c0-1.33.68-2,1.64-2s1.41.55,1.41,1.76v3.94h2.17V374c0-1.33.68-2,1.65-2s1.41.55,1.41,1.76v3.94h2.16v-4.28C504.29,371.18,503,370.15,501.24,370.15Z"/><circle class="cls-6" cx="448.63" cy="367.9" r="8.37" transform="translate(-19.73 710.33) rotate(-75.52)"/><path class="cls-8" d="M445.25,369.42a12.94,12.94,0,0,1,2.15-.13c1.37,0,3.32-.07,5.67-.09l-.18.37-2.13-2.47-.14-.15.13-.17,2.11-2.63.21.42h-1l-6.86,0,.23-.23c0,2.54-.05,4.68-.09,6.18a14.85,14.85,0,0,1-.14,2.37,14.85,14.85,0,0,1-.14-2.37c0-1.5-.07-3.64-.09-6.18v-.23h.23l6.86,0h1.5l-.34.42-2.13,2.63v-.32l2.1,2.5.31.37h-.48c-2.35,0-4.3-.06-5.67-.09A12.12,12.12,0,0,1,445.25,369.42Z"/><path class="cls-6" d="M584.05,353.61H558.74a4.85,4.85,0,0,0-4.84,4.85v19.92a4.84,4.84,0,0,0,4.84,4.84h.64V388l5.51-4.75h19.16a4.84,4.84,0,0,0,4.84-4.84V358.46A4.84,4.84,0,0,0,584.05,353.61Z"/><path class="cls-8" d="M561.16,362.75V373a.39.39,0,0,0,.39.4H583a.41.41,0,0,0,.4-.41l0-3.74a.4.4,0,0,0-.08-.23l-3.07-4.11a.38.38,0,0,0-.31-.16l-3.54,0a.39.39,0,0,1-.4-.39v-1.55a.4.4,0,0,0-.4-.4h-14A.39.39,0,0,0,561.16,362.75Z"/><path class="cls-6" d="M576.92,365.59v3.27a.23.23,0,0,0,.23.23l4.73-.08a.23.23,0,0,0,.18-.36l-2.21-3.26a.24.24,0,0,0-.19-.1l-2.52.07A.22.22,0,0,0,576.92,365.59Z"/><rect class="cls-8" x="560.73" y="373.68" width="23.07" height="0.71"/><path class="cls-6" d="M568.36,374a2.29,2.29,0,1,1-2.29-2.28A2.29,2.29,0,0,1,568.36,374Z"/><path class="cls-8" d="M567.42,374a1.35,1.35,0,1,1-1.35-1.34A1.34,1.34,0,0,1,567.42,374Z"/><path class="cls-6" d="M575.9,373.37c-.06,0-.1-2.47-.1-5.51s0-5.51.1-5.51.11,2.47.11,5.51S576,373.37,575.9,373.37Z"/><path class="cls-6" d="M580.79,374a2.28,2.28,0,1,1-2.28-2.28A2.28,2.28,0,0,1,580.79,374Z"/><path class="cls-8" d="M579.85,374a1.34,1.34,0,1,1-1.34-1.34A1.34,1.34,0,0,1,579.85,374Z"/><path class="cls-6" d="M578.52,369.74c0,.06-.33.1-.73.1s-.73,0-.73-.1.32-.11.73-.11S578.52,369.68,578.52,369.74Z"/></g><g id="Character"><path class="cls-10" d="M219.7,202s-16.13,2.73-17.43,3.07-6.41,2.77-6.67,4.33a46.79,46.79,0,0,0,0,6.15s.92.75,1.5-.75a15.31,15.31,0,0,0,.49-4.47l2.86-1.1L198.89,212l-.26,6.49s2-.18,2.39-1.73a16.07,16.07,0,0,0,.38-3.29l2.08-1.76-1.56,2.11-.52,4.67s1.52.5,2-.54a16.44,16.44,0,0,0,.51-4.13l5.88-2.06,3.9,2.17,7.27-4.11Z"/><path class="cls-6" d="M276.17,162.14c-.07.32-19.44,27-19.44,27l-38.9,12.1,1.78,14.61,47.67-9.6,16.92-19.41Z"/><g class="cls-11"><path d="M276.17,162.14c-.07.32-19.44,27-19.44,27l-38.9,12.1,1.78,14.61,47.67-9.6,16.92-19.41Z"/></g><rect class="cls-3" x="340.88" y="198.83" width="85.58" height="15.49" rx="3.05"/><path class="cls-2" d="M343.93,214.32s-.17,0-.5-.07a3.07,3.07,0,0,1-1.33-.61,3,3,0,0,1-1.12-2c0-.94,0-2.06,0-3.3s0-2.63,0-4.14c0-.76,0-1.55,0-2.37a2.91,2.91,0,0,1,2.16-2.73,4.52,4.52,0,0,1,1.34-.09h9.28l69.61.08a2.76,2.76,0,0,1,2.06.91,2.87,2.87,0,0,1,.73,2.15v8.71a3.52,3.52,0,0,1-.1,1.14,2.73,2.73,0,0,1-1.33,1.71,2.82,2.82,0,0,1-1,.34c-.35,0-.79,0-1.18,0H404.06l-31.29.06-21.1.08-5.74.05-1.49,0-.51,0s.17,0,.51,0l1.49,0,5.74,0,21.1.08,31.29.06,18.48,0c.41,0,.78,0,1.23,0a3.27,3.27,0,0,0,1.25-.4,3.31,3.31,0,0,0,1.58-2,4.74,4.74,0,0,0,.12-1.28v-8.71a3.4,3.4,0,0,0-.86-2.5,3.3,3.3,0,0,0-2.45-1.08l-69.61.08h-9.28a5.72,5.72,0,0,0-1.42.12,3.2,3.2,0,0,0-2.35,3c0,.83,0,1.62,0,2.38,0,1.51,0,2.89,0,4.14s0,2.35.05,3.32a3.12,3.12,0,0,0,1.21,2.09,3,3,0,0,0,1.38.57A1.78,1.78,0,0,0,343.93,214.32Z"/><circle class="cls-2" cx="130.08" cy="371.42" r="40.89" transform="translate(-247.14 483.55) rotate(-87.25)"/><path class="cls-2" d="M171,370.72s0,.07,0,.11A40.89,40.89,0,0,1,89.2,372v-.11Z"/><path class="cls-8" d="M158.79,371a28.71,28.71,0,1,1-29.12-28.29A28.71,28.71,0,0,1,158.79,371Z"/><path class="cls-12" d="M129.67,342.71A28.72,28.72,0,0,1,158.79,371l-57.41.83A28.71,28.71,0,0,1,129.67,342.71Z"/><path class="cls-2" d="M147.57,371.17a17.49,17.49,0,1,1-17.74-17.24A17.49,17.49,0,0,1,147.57,371.17Z"/><path class="cls-6" d="M149.49,311.46s-41.86-12.66-59.18,32.82l87.61,27.14Z"/><circle class="cls-2" cx="382.37" cy="371.42" r="40.89" transform="translate(-6.89 735.61) rotate(-87.26)"/><path class="cls-2" d="M423.25,370.72v.11A40.88,40.88,0,0,1,341.49,372v-.11Z"/><path class="cls-8" d="M411.07,371A28.7,28.7,0,1,1,382,342.71,28.7,28.7,0,0,1,411.07,371Z"/><path class="cls-12" d="M382,342.71A28.71,28.71,0,0,1,411.07,371l-57.4.83A28.71,28.71,0,0,1,382,342.71Z"/><path class="cls-2" d="M399.85,371.17a17.48,17.48,0,1,1-17.73-17.24A17.48,17.48,0,0,1,399.85,371.17Z"/><path class="cls-13" d="M324.21,355c.23.12,21.52-3.29,21.52-3.29h0a13,13,0,0,0,9.71,5.08c9.2.45,18.19.85,26,1.2A13.18,13.18,0,0,1,394,371.72h0a13.2,13.2,0,0,1-12.67,12.64l-45.28,1.78c-7.44.29-17.34-4.23-22-10.06h0Z"/><path class="cls-6" d="M435.45,336.91s1.95-39.85-35.5-48.15v-5.11H268.76v12.18s19.26,23.19,13,42.44-8.25,21.22-8.25,21.22H198.81a51.13,51.13,0,0,1-9.43-28.29c-.39-16.9,6.63-45.79,11.87-64.26C206,250.14,209,236.1,209,236.1l-22.4-7.47s-41.44,54.2-43.14,57.24S136,296,137.4,311.61s38.6,63.65,48.42,69.07,18.62,5.76,27.42,7.11c7.65,1.18,64.17.4,79,.17a29,29,0,0,0,14.59-4c4.42-2.68,7.75-7.12,11.42-14.4L326,354.27Z"/><path class="cls-13" d="M425.41,334.14,441.94,360a4,4,0,0,1-4.92,5.92,19.34,19.34,0,0,1-5.54-3.76c-7.56-7.19-21-26.13-21-26.13Z"/><path class="cls-1" d="M306.92,338.8a1.73,1.73,0,0,0-.09-.38c-.09-.27-.2-.63-.34-1.09a27.74,27.74,0,0,1-.86-4.27,30.14,30.14,0,0,1,2.56-15.62,32.68,32.68,0,0,1,6.08-9.15,40.12,40.12,0,0,1,10-7.66,50.83,50.83,0,0,1,13.11-4.88,69.58,69.58,0,0,1,15-1.55,113,113,0,0,1,15.06,1.11c4.84.65,9.48,1.45,13.85,2.45A82.16,82.16,0,0,1,403.55,306a55.34,55.34,0,0,1,12.71,9.71c1.32,1.36,2.27,2.49,2.9,3.26l.71.89c.16.2.25.3.26.29a33.61,33.61,0,0,0-3.72-4.58,54,54,0,0,0-12.68-9.89,81.36,81.36,0,0,0-22.33-8.38c-4.39-1-9-1.83-13.9-2.49a113.65,113.65,0,0,0-15.12-1.12,68.79,68.79,0,0,0-15.07,1.57,51.31,51.31,0,0,0-13.23,5A40.33,40.33,0,0,0,314,308a32.92,32.92,0,0,0-6.11,9.3,30,30,0,0,0-2.42,15.8,26.5,26.5,0,0,0,1,4.27c.16.46.29.81.39,1.08A3,3,0,0,0,306.92,338.8Z"/><path class="cls-3" d="M314.48,329.85c.06,0-.22-.63-.49-1.77a12.94,12.94,0,0,1-.15-5,20.51,20.51,0,0,1,2.43-6.94,25.26,25.26,0,0,1,2.42-3.64,22.42,22.42,0,0,1,3.25-3.37,28.59,28.59,0,0,1,7.81-4.56,36.45,36.45,0,0,1,7.15-2,50.14,50.14,0,0,1,5-.57,14.69,14.69,0,0,0,1.84-.14,1.61,1.61,0,0,0-.48,0c-.31,0-.77,0-1.37,0a37.4,37.4,0,0,0-5,.41,34.58,34.58,0,0,0-7.28,1.87,28.51,28.51,0,0,0-8,4.61,22.91,22.91,0,0,0-3.32,3.45,24.3,24.3,0,0,0-2.44,3.73,20.3,20.3,0,0,0-2.38,7.12,12.46,12.46,0,0,0,.32,5.06,6.49,6.49,0,0,0,.48,1.29A1.76,1.76,0,0,0,314.48,329.85Z"/><g class="cls-9"><path d="M340.17,294.94a52.54,52.54,0,0,0-19.75,8,34.93,34.93,0,0,0-13.24,16.44c-2.61,6.74-2.22,15.67.53,21.25l-9.27.77c-3.12-10.41.28-23.18,7.78-31.33a46,46,0,0,1,33.95-15.17"/></g><rect class="cls-13" x="334.55" y="213.54" width="98.25" height="70.11" rx="8.58" transform="translate(767.35 497.19) rotate(180)"/><path class="cls-2" d="M334.55,229.18c0,.15,22.09.26,49.33.26s49.34-.11,49.34-.26-22.09-.26-49.34-.26S334.55,229,334.55,229.18Z"/><path class="cls-1" d="M268.83,288.29c0,.14,29.48.26,65.85.26s65.85-.12,65.85-.26-29.48-.26-65.85-.26S268.83,288.15,268.83,288.29Z"/><path class="cls-13" d="M268.76,283.65a11.37,11.37,0,0,1-2.37-5.88c-.2-3.29,1.3-7.41,4.84-7.41h45.3a13.29,13.29,0,0,1,13.29,13.29H268.76Z"/><path class="cls-6" d="M209,236.1l7.88-16.43a10.06,10.06,0,0,0-4-12.85l-23.56-14a7.9,7.9,0,0,0-4.07-1.13h-5.09l-2,33.21,7.85,3-5,8.08Z"/><path class="cls-5" d="M180.13,192.85s-8.06,1.85-9.07,14.27,7.11,16.3,7.11,16.3Z"/><path class="cls-2" d="M206.29,213.23s16.29,7.73,18.28,9c1.38.88,2.56,2.42,1.48,5.13-1.85,4.61-9.46.27-9.46.27L201.42,220s-5.83-2.75-3.68-6.2C200.15,210,206.29,213.23,206.29,213.23Z"/><path class="cls-10" d="M229.34,210.42s-15.3,2.62-16.6,3-6.41,2.77-6.67,4.33a46.79,46.79,0,0,0,0,6.15s.93.75,1.5-.75a15.53,15.53,0,0,0,.5-4.48l2.85-1.1-1.56,2.78-.26,6.49s2-.18,2.39-1.74a15.18,15.18,0,0,0,.38-3.28L214,220l-1.55,2.11-.53,4.68s1.52.49,2-.55a16.06,16.06,0,0,0,.52-4.13l5.88-2,3.89,2.17,6.12-3.36Z"/><path class="cls-2" d="M205.51,189.1c0,6.2,2.85,11.22,6.36,11.22s6.36-5,6.36-11.22-2.85-11.22-6.36-11.22S205.51,182.91,205.51,189.1Z"/><path class="cls-2" d="M210.82,196.81l-3.49,12.12a3.14,3.14,0,0,1-1.63-3.58c.88-4.15,1.37-7.1,2.34-10.74.11-.36,2.78,2.2,2.78,2.2"/><g class="cls-9"><path d="M280,343.45c.34-1,.69-2,1-3.07s.68-2,.94-3a32.21,32.21,0,0,0,.88-4.57c5.89,24-3.11,40.93-18.58,42.12-22.59,1.74-50.14,3-61.28.08-20.31-5.33-27.76-22.27-29.54-25.06s-17.94-32.32-8-60.75,27.16-58.62,27.16-58.62L209,236.1s-3,14-7.78,30.84C196,285.41,189,314.3,189.38,331.2a51.13,51.13,0,0,0,9.43,28.29h74.67s1.6-1.6,6.53-16"/></g><path class="cls-6" d="M438.44,330.66l-.53-5.7-136.28,15.7a13.46,13.46,0,0,0-11.69,15.72l.61,3.45L431.6,339.34A8,8,0,0,0,438.44,330.66Z"/><g class="cls-7"><path d="M438.44,330.66l-.53-5.7-136.28,15.7a13.46,13.46,0,0,0-11.69,15.72l.61,3.45L431.6,339.34A8,8,0,0,0,438.44,330.66Z"/></g><g class="cls-14"><path d="M173.46,368.78s-30-33-36.19-58.94a58.24,58.24,0,0,0-9.29.69S145.72,358.76,173.46,368.78Z"/></g><path class="cls-1" d="M137.71,298.22a3.82,3.82,0,0,0-.16.83c-.08.55-.25,1.36-.35,2.41a37.35,37.35,0,0,0,.24,9,45.74,45.74,0,0,0,3.95,12.68,146,146,0,0,0,8,14.2A188.61,188.61,0,0,0,166.9,361c2.44,2.89,4.46,5.19,5.86,6.77l1.62,1.81a5.51,5.51,0,0,0,.59.61,4.46,4.46,0,0,0-.51-.67l-1.55-1.88-5.73-6.87A205,205,0,0,1,149.78,337a150.11,150.11,0,0,1-7.95-14.13,46.41,46.41,0,0,1-4-12.54,38.76,38.76,0,0,1-.39-8.88c.06-1.05.19-1.86.24-2.42A5.85,5.85,0,0,0,137.71,298.22Z"/><path class="cls-1" d="M189.57,368.54a39.59,39.59,0,0,0,4.8-4.34,38.23,38.23,0,0,0,4.44-4.71,40.65,40.65,0,0,0-4.8,4.34A41.15,41.15,0,0,0,189.57,368.54Z"/><path class="cls-1" d="M278.6,367.53a13.72,13.72,0,0,0-2.2-4.27,14.07,14.07,0,0,0-3.15-3.63c-.11.11,1.25,1.75,2.72,3.92S278.47,367.59,278.6,367.53Z"/><path class="cls-1" d="M336.25,386.58a20,20,0,0,1-4.1-5.2,18.09,18.09,0,0,1-2-6.84,15.88,15.88,0,0,1,7.17-15.05,18,18,0,0,1,6.59-2.75,20.49,20.49,0,0,1,6.61-.09,1.93,1.93,0,0,0-.44-.13,10.9,10.9,0,0,0-1.32-.26,15.69,15.69,0,0,0-4.92.12,17.89,17.89,0,0,0-6.78,2.71,16.11,16.11,0,0,0-7.39,15.49,17.83,17.83,0,0,0,2.16,7,15.89,15.89,0,0,0,3,3.9,12.8,12.8,0,0,0,1,.86A1.61,1.61,0,0,0,336.25,386.58Z"/><path class="cls-1" d="M386,376.13a23,23,0,0,0,.49-4.8,22.71,22.71,0,0,0,0-4.84,23.26,23.26,0,0,0-.49,4.81A22.59,22.59,0,0,0,386,376.13Z"/><path class="cls-1" d="M382.4,376.14a46.3,46.3,0,0,0,1.23-9.66,23.11,23.11,0,0,0-.88,4.8A22.07,22.07,0,0,0,382.4,376.14Z"/><path class="cls-1" d="M326.19,283.65c0,.14,16.57.26,37,.26s37-.12,37-.26-16.57-.26-37-.26S326.19,283.51,326.19,283.65Z"/><path class="cls-2" d="M379.85,283.6c.14,0,.26-19,.26-42.38s-.12-42.39-.26-42.39-.26,19-.26,42.39S379.71,283.6,379.85,283.6Z"/><path class="cls-2" d="M390,283.53c.15,0-.56-19-1.58-42.36s-2-42.35-2.1-42.34.56,19,1.58,42.36S389.85,283.54,390,283.53Z"/><path class="cls-15" d="M413,399.18a3.12,3.12,0,0,0,.43-.44c.27-.31.7-.74,1.17-1.35a37.8,37.8,0,0,0,3.69-5.42,41.5,41.5,0,0,0-.17-41.48,39.37,39.37,0,0,0-3.73-5.39c-.48-.61-.91-1-1.18-1.34s-.43-.45-.45-.43a4,4,0,0,0,.37.5c.24.33.64.77,1.1,1.4a43.51,43.51,0,0,1,3.57,5.44,42.15,42.15,0,0,1,.17,41.12,42.57,42.57,0,0,1-3.53,5.47c-.45.63-.84,1.08-1.08,1.41S412.93,399.16,413,399.18Z"/><path class="cls-13" d="M269.69,323l.31.58,6,11.34,8.44,8.12-16.87,22.46-14.06-2.33s1.58-3.21,8.64-3.83l2.69-13.42L255,330.55"/><polygon class="cls-12" points="284.46 343.03 267.59 365.49 253.53 363.16 255.47 361.31 267 362.57 282.66 341.3 284.46 343.03"/><path class="cls-1" d="M263.28,353.16c.08.16,1-.17,2.05,0s1.81.79,1.94.67-.5-1.06-1.83-1.29S263.17,353,263.28,353.16Z"/><path class="cls-1" d="M264.07,349.85c.12.12.88-.6,2-.63s2,.62,2.08.49-.06-.31-.42-.59a2.67,2.67,0,0,0-3.32.1C264.11,349.53,264,349.8,264.07,349.85Z"/><path class="cls-1" d="M264.69,345.54c.14.1.76-.63,1.79-.81s1.86.29,2,.14-.1-.29-.46-.5a2.47,2.47,0,0,0-3,.54C264.68,345.23,264.62,345.49,264.69,345.54Z"/><path class="cls-1" d="M261.48,341.58c.16.08.69-.65,1.65-1.07s1.86-.36,1.9-.53-1-.58-2.15,0S261.32,341.53,261.48,341.58Z"/><path class="cls-1" d="M260.13,338.39a6.4,6.4,0,0,0,1.47-1.27l1.47-1.49a4.6,4.6,0,0,0,.84-1,1.17,1.17,0,0,0,.06-.87.9.9,0,0,0-.78-.58,2.53,2.53,0,0,0-1.42.46,5,5,0,0,0-1,.83,4.75,4.75,0,0,0-1.07,1.91,2.56,2.56,0,0,0,0,2,15,15,0,0,1,.42-1.83,5,5,0,0,1,1.07-1.65,4.58,4.58,0,0,1,.91-.7,2.26,2.26,0,0,1,1.06-.37.26.26,0,0,1,.24.17.59.59,0,0,1,0,.41,4.76,4.76,0,0,1-.7.89c-.47.53-.92,1.06-1.37,1.58A6,6,0,0,0,260.13,338.39Z"/><path class="cls-1" d="M259.56,338.72c.06,0,.13-.74-.49-1.71a3.55,3.55,0,0,0-4-1.45.65.65,0,0,0-.3.47.77.77,0,0,0,.1.47,2,2,0,0,0,.43.53,6.62,6.62,0,0,0,.89.73,6.13,6.13,0,0,0,1.77.82,2.89,2.89,0,0,0,1.76.13c0-.1-.66-.16-1.62-.54a7.44,7.44,0,0,1-1.57-.88,6.36,6.36,0,0,1-.8-.7,1.59,1.59,0,0,1-.31-.37c0-.14,0-.1,0-.13a1.17,1.17,0,0,1,.44-.09,3.13,3.13,0,0,1,.53,0,3.5,3.5,0,0,1,1,.24,3.43,3.43,0,0,1,1.39,1A14.49,14.49,0,0,1,259.56,338.72Z"/><path class="cls-12" d="M273.32,340.74a1.69,1.69,0,1,0,1.94-1.39A1.69,1.69,0,0,0,273.32,340.74Z"/><path class="cls-13" d="M218.49,333.79,214,363.07l-36.47-5.42c.73-3.45,20.64-7.64,20.64-7.64l2.12-18.88Z"/><path class="cls-12" d="M209.66,350.11a1.5,1.5,0,0,1,.77,1.85,1.44,1.44,0,0,1-1.82.79,1.6,1.6,0,0,1-.82-2,1.51,1.51,0,0,1,2-.61"/><path class="cls-12" d="M214,363.07l.33-3L179.23,356s-1.73.47-1.72,1.64Z"/><path class="cls-1" d="M197.58,349.74c0,.18.86.39,1.65,1.09s1.15,1.52,1.32,1.48.07-1.12-.91-1.95S197.57,349.57,197.58,349.74Z"/><path class="cls-1" d="M193.53,350.75c-.07.17.65.58,1.15,1.43s.55,1.66.72,1.68.45-1-.19-2S193.55,350.58,193.53,350.75Z"/><path class="cls-1" d="M190.67,355c.16.07.54-.79.23-1.83s-1.09-1.55-1.19-1.42.34.74.59,1.6S190.5,355,190.67,355Z"/><path class="cls-1" d="M198.55,345.49c0,.17.9.05,1.9.26s1.73.66,1.84.52-.54-.89-1.72-1.13S198.48,345.33,198.55,345.49Z"/><path class="cls-1" d="M200.06,341.29a3.41,3.41,0,0,0,1.82.26,8.23,8.23,0,0,0,2-.3,7.65,7.65,0,0,0,1.13-.4,2.09,2.09,0,0,0,.62-.35.78.78,0,0,0,.22-.93,1,1,0,0,0-.72-.53,2.72,2.72,0,0,0-.7,0,5.58,5.58,0,0,0-1.19.22,6.63,6.63,0,0,0-1.85.85c-1,.66-1.35,1.28-1.29,1.33s.56-.43,1.52-.95a7.12,7.12,0,0,1,1.77-.67,6.21,6.21,0,0,1,1.09-.17c.4,0,.73,0,.81.19s0,.09-.07.2a1.76,1.76,0,0,1-.46.25,9.73,9.73,0,0,1-1,.41,10.65,10.65,0,0,1-1.87.41A12.63,12.63,0,0,0,200.06,341.29Z"/><path class="cls-1" d="M200.25,341.58c.06,0,.51-.55.75-1.69a6.21,6.21,0,0,0,0-2,5.38,5.38,0,0,0-.3-1.18,1.52,1.52,0,0,0-1-1.09.87.87,0,0,0-.84.39,2.29,2.29,0,0,0-.29.65,4.07,4.07,0,0,0-.18,1.23,4.25,4.25,0,0,0,.5,2c.57,1,1.28,1.37,1.3,1.31s-.49-.51-.9-1.5a4.17,4.17,0,0,1-.33-1.8,4.3,4.3,0,0,1,.19-1.05c.12-.38.31-.67.45-.61s.45.36.55.69a5.46,5.46,0,0,1,.3,1.06,6.79,6.79,0,0,1,.09,1.87C200.45,340.9,200.16,341.54,200.25,341.58Z"/><polyline class="cls-2" points="247.18 265.01 278.45 333.15 257.8 345.55 214.56 263.56"/><path class="cls-2" d="M195.61,347.1l22.44,3.6,13.43-80.14,66.34,4.81a16.22,16.22,0,0,0,5.24-.5c18.63-5.11,16.11-28.87,14.31-32.68l-91.81-2.63a19.54,19.54,0,0,0-19.92,16.83Z"/><path class="cls-6" d="M318.28,246,318,212.08s4.37-22,5.67-30.69c2-13.44,4.76-19.83-17.27-29.38l-4.81-1.86-7.45.1c-8.89.67-18.25,8.7-18.46,14l-8.57,76.35Z"/><path class="cls-6" d="M316.9,159.88s6.22,13.38,5,25.57l-23.16,22.24c-5.2,5.78-11.69,8.24-20,8.74l-47.94,5.24-1.33-12.54L275,196.21c1.82-.34,2.72-2.23,4.11-3.45l37.75-32.88"/><path class="cls-1" d="M320.65,163.74a3.28,3.28,0,0,0-.92-.62,11.43,11.43,0,0,0-3.1-.87,16,16,0,0,0-5.18,0,5.27,5.27,0,0,0-1.52.52,13.65,13.65,0,0,0-1.41,1,33.64,33.64,0,0,0-2.8,2.44c-1.93,1.79-3.74,4.06-5.87,6.36s-4.46,4.77-7,7.36-5.26,5.3-8.19,8.1c-1.47,1.4-3,2.82-4.58,4.21-.81.66-1.61,1.44-2.38,2.17A5.74,5.74,0,0,1,275,196h0l-45.61,12.9-.22.06,0,.22c.09.89.19,1.85.3,2.81.35,3.33.7,6.63,1,9.73l0,.26.26,0,20.29-2.23,9.6-1,9.19-.93c3-.33,5.89-.67,8.7-1.08a39.07,39.07,0,0,0,8.05-1.87,29.75,29.75,0,0,0,6.79-3.65c2-1.41,3.87-2.88,5.61-4.32,6.85-5.85,11.88-11.08,15.37-14.64,1.73-1.79,3.06-3.2,4-4.16l1-1.1c.22-.25.32-.39.32-.39l-.36.35-1,1.07-4,4.1c-3.53,3.51-8.6,8.7-15.46,14.49-1.73,1.43-3.58,2.89-5.6,4.28a29.22,29.22,0,0,1-6.71,3.58,39.13,39.13,0,0,1-8,1.82c-2.81.4-5.71.74-8.69,1.06l-9.19.9-9.6,1.05-20.3,2.21.29.23c-.33-3.1-.68-6.4-1-9.74-.1-1-.2-1.92-.29-2.81l-.19.28,45.6-12.95h0a6.08,6.08,0,0,0,2.92-1.69c.81-.77,1.54-1.49,2.37-2.18,1.61-1.4,3.12-2.83,4.59-4.23,2.92-2.81,5.64-5.54,8.17-8.14s4.85-5.08,7-7.41,3.92-4.59,5.82-6.38a35.24,35.24,0,0,1,2.76-2.45,14.24,14.24,0,0,1,1.37-1,5,5,0,0,1,1.46-.51,15.51,15.51,0,0,1,5.11-.08,11.55,11.55,0,0,1,3.09.79A7,7,0,0,1,320.65,163.74Z"/><path class="cls-10" d="M308.68,120.76l-2.33,33a10.27,10.27,0,0,1-10.25,9.55h0a10.27,10.27,0,0,1-10.26-11c.2-3.14.39-5.71.39-5.71s-8-1.24-8.08-9.23c-.06-4.61.73-15.07,1.42-23.09A10.46,10.46,0,0,1,290,104.75h4.82A14.76,14.76,0,0,1,308.68,120.76Z"/><path class="cls-16" d="M286.22,146.52a18.57,18.57,0,0,0,10.4-3s-2.46,5.74-10.42,5Z"/><path class="cls-1" d="M281.36,124.58a1.13,1.13,0,0,0,1.1,1.15,1.08,1.08,0,0,0,1.18-1,1.15,1.15,0,0,0-1.1-1.16A1.1,1.1,0,0,0,281.36,124.58Z"/><path class="cls-1" d="M280.94,122.33c.14.15,1-.49,2.23-.49s2.13.62,2.26.47-.08-.33-.47-.62a3.16,3.16,0,0,0-1.81-.56,3,3,0,0,0-1.77.58C281,122,280.87,122.26,280.94,122.33Z"/><path class="cls-1" d="M292.88,124.58a1.13,1.13,0,0,0,1.1,1.15,1.09,1.09,0,0,0,1.18-1,1.15,1.15,0,0,0-1.1-1.16A1.1,1.1,0,0,0,292.88,124.58Z"/><path class="cls-1" d="M293,122.56c.14.15,1-.49,2.23-.49s2.13.62,2.26.47-.08-.34-.47-.62a3.12,3.12,0,0,0-3.58,0C293.06,122.22,292.93,122.49,293,122.56Z"/><path class="cls-1" d="M288.55,131.66a8.33,8.33,0,0,0-2-.36c-.32,0-.61-.1-.67-.31a1.65,1.65,0,0,1,.21-.93c.3-.76.61-1.55.93-2.38a40.28,40.28,0,0,0,2.08-6.24,41.13,41.13,0,0,0-2.58,6c-.31.84-.6,1.64-.89,2.4a1.87,1.87,0,0,0-.16,1.23.79.79,0,0,0,.52.46,1.76,1.76,0,0,0,.53.07A8.07,8.07,0,0,0,288.55,131.66Z"/><path class="cls-1" d="M292.16,132.51c-.2,0-.2,1.32-1.34,2.26s-2.56.8-2.57,1,.32.25.91.27a3.33,3.33,0,0,0,2.15-.75,2.93,2.93,0,0,0,1-1.9C292.4,132.83,292.25,132.5,292.16,132.51Z"/><path class="cls-1" d="M292.68,117.75c.13.34,1.35.18,2.79.35s2.6.57,2.79.27-.11-.46-.58-.78a4.84,4.84,0,0,0-4.25-.47C292.9,117.33,292.63,117.59,292.68,117.75Z"/><path class="cls-1" d="M281.39,118.78c.22.28,1.06,0,2.08,0s1.88.18,2.08-.11-.05-.42-.43-.68a3,3,0,0,0-3.34.1C281.42,118.36,281.3,118.64,281.39,118.78Z"/><path class="cls-10" d="M306,126.76c.14-.06,5.49-1.63,5.31,3.83s-5.62,4.16-5.62,4S306,126.76,306,126.76Z"/><path class="cls-16" d="M307.41,132.58s.1.07.25.15a1,1,0,0,0,.71,0,2.34,2.34,0,0,0,1.16-2.07,3.16,3.16,0,0,0-.22-1.37,1.15,1.15,0,0,0-.69-.76.49.49,0,0,0-.57.25c-.08.15-.05.26-.08.27s-.11-.1-.06-.32a.57.57,0,0,1,.22-.34.73.73,0,0,1,.53-.12,1.33,1.33,0,0,1,1,.88,3.3,3.3,0,0,1,.28,1.53,2.47,2.47,0,0,1-1.46,2.31,1,1,0,0,1-.87-.17C307.42,132.71,307.39,132.59,307.41,132.58Z"/><path class="cls-1" d="M309,126.57a2.88,2.88,0,0,0-2.63,1.35c-.35.78-.43,1.66-.79,2.44a1.92,1.92,0,0,1-2,1.29,1.68,1.68,0,0,1-1.14-1.25,4.73,4.73,0,0,1,0-1.76c.32-2.55.86-5.07,1-7.64a13,13,0,0,0-1.61-7.42,7.16,7.16,0,0,0-6.38-3.59c-1.7.14-3.25,1-4.94,1.26A6.68,6.68,0,0,1,285,109.4c-.18-.18-1-.75-1-.75a3.09,3.09,0,0,1,.57-1.68c3.34-3.1,9.37-4,13.78-2.85a15.92,15.92,0,0,1,10.46,8.37c1.9,4.14,1.33,9.89.29,14.08"/><path class="cls-6" d="M279.48,113.09s20.94-6.73,30,11.38a34,34,0,0,0,1.35-7c0-1.62-1-11.29-10.91-14.33C299.92,103.18,284.93,97.46,279.48,113.09Z"/><path class="cls-1" d="M297.47,113.55a4.56,4.56,0,0,1-7.25.65,2.74,2.74,0,0,1-2.63,1.69,2.78,2.78,0,0,1-2.45-2,6.17,6.17,0,0,1-2,1.49,2.08,2.08,0,0,1-2.33-.49,2,2,0,0,1,.14-2.4,5,5,0,0,1,2.13-1.43,15.33,15.33,0,0,1,7.9-1.2,10.67,10.67,0,0,1,6.93,3.77"/><g class="cls-9"><path d="M279.48,113.09a9.73,9.73,0,0,1,6.66-3c6.17-.27,17.74,3.2,23.34,14.4a34,34,0,0,0,1.35-7c0-1.62-1-11.29-10.91-14.33C299.92,103.18,284.93,97.46,279.48,113.09Z"/></g><path class="cls-6" d="M308.61,122.35a39.36,39.36,0,0,0-12.21-11.68c-4.81-3-12.77-6-18.26-7.44a11.86,11.86,0,0,0-5-.53,4.55,4.55,0,0,0-3.74,3.06c-.52,2.07,3.15,5.26,4.87,6.51a56.24,56.24,0,0,0,5.25,3.1s-.05-3.84,6.09-4.63C293.92,109.67,308.61,122.35,308.61,122.35Z"/><g class="cls-14"><path d="M316,190.4c-2.16,5-4.34,11.09-7.47,15.57A28.64,28.64,0,0,1,296,216.48c-6.53,2.61-14.26,3-20.76.36-.53-.22-1.57-.5-1.47-1,0,0,2.15-.23,2.81-.34,13.14-2.11,14.57-3.66,20.85-8.39,3.92-3,12.61-11.89,18.56-16.67"/></g><path class="cls-1" d="M274.22,228.34a5.49,5.49,0,0,0,.55,1.22,15.25,15.25,0,0,0,2.12,3,22.9,22.9,0,0,0,10.18,6.23,46.53,46.53,0,0,0,11.84,1.77c1.53.06,2.77.07,3.62.07a7.73,7.73,0,0,0,1.33-.06,6,6,0,0,0-1.32-.15l-3.61-.23a51.73,51.73,0,0,1-11.71-1.9,23.74,23.74,0,0,1-10.06-6A25.64,25.64,0,0,1,274.22,228.34Z"/><path class="cls-13" d="M217.65,353.09a1.53,1.53,0,0,0,.08-.31c0-.23.1-.53.18-.92.15-.84.37-2,.64-3.54.54-3.12,1.32-7.57,2.27-13.06,1.88-11.06,4.46-26.29,7.3-43.11l3.6-21.55-.26.21,28.7,2.1,8.25.56,2.19.12.57,0h.19s-.06,0-.19,0l-.56-.07-2.19-.2-8.23-.7-28.69-2.29-.23,0,0,.22c-1.12,6.65-2.35,13.93-3.63,21.54-2.79,16.83-5.32,32.07-7.15,43.14-.89,5.5-1.61,10-2.11,13.08-.23,1.52-.42,2.72-.55,3.57-.05.38-.09.69-.13.92A1.54,1.54,0,0,0,217.65,353.09Z"/><path class="cls-13" d="M224.74,263.42c-.09.12,1.65,1.62,3.64,3.64s3.46,3.79,3.58,3.69a24.11,24.11,0,0,0-7.22-7.33Z"/><path class="cls-1" d="M286,153.05s-.06.11-.12.33a4.69,4.69,0,0,0-.19,1,8.06,8.06,0,0,0,.48,3.64,9.32,9.32,0,0,0,3.3,4.32,10,10,0,0,0,6.41,1.72,11.58,11.58,0,0,0,6.23-2.34,13.5,13.5,0,0,0,3.54-4.13,14.28,14.28,0,0,0,1.36-3.4,7.93,7.93,0,0,0,.19-1c0-.23.05-.35,0-.35a22.43,22.43,0,0,1-1.9,4.54,13.57,13.57,0,0,1-3.51,3.93,11.26,11.26,0,0,1-6,2.2,9.69,9.69,0,0,1-6.11-1.59,9.22,9.22,0,0,1-3.22-4.06,8.49,8.49,0,0,1-.63-3.49C286,153.53,286.09,153.07,286,153.05Z"/><path class="cls-1" d="M271.93,196.72a3.84,3.84,0,0,0,.21-1c.12-.79.25-1.74.41-2.86.33-2.55.76-5.83,1.23-9.45s.8-7.06,1-9.49c.11-1.21.19-2.2.23-2.88a3.93,3.93,0,0,0,0-1.06,4.23,4.23,0,0,0-.21,1c-.11.79-.24,1.74-.39,2.86-.32,2.55-.73,5.83-1.18,9.46s-.85,7-1.08,9.48c-.11,1.21-.2,2.2-.24,2.88A3.93,3.93,0,0,0,271.93,196.72Z"/></g></g></svg>