<svg xmlns="http://www.w3.org/2000/svg" viewBox="0 0 511.43 512.48"><defs><style>.cls-1{fill:#ffe0b2;}.cls-2{fill:#f5f5f5;}.cls-3{fill:#d0d8dc;}.cls-4{fill:none;stroke:#f5f6f2;stroke-linecap:round;stroke-miterlimit:10;stroke-width:18px;}.cls-5{fill:#e0c59c;}</style></defs><g id="Layer_2" data-name="Layer 2"><g id="Layer_1-2" data-name="Layer 1"><polygon class="cls-1" points="9.83 223.39 21.4 281.25 40.69 294.1 12.4 362.25 17.55 452.25 40.69 483.1 63.83 477.96 90.83 465.1 139.69 498.53 215.55 501.1 251.55 486.96 301.69 497.25 382.69 494.68 426.4 440.68 421.26 465.1 445.69 476.68 473.98 477.96 500.98 440.68 498.4 366.1 471.4 297.96 506.12 242.68 471.4 166.82 441.83 139.82 418.69 108.96 355.69 120.53 345.4 133.39 345.4 165.53 263.12 119.25 166.69 164.25 161.55 129.53 115.26 115.39 81.83 108.96 74.12 133.39 9.83 223.39"/><polygon class="cls-2" points="93.4 99.53 101.97 82.96 80.26 59.53 80.26 30.39 103.12 13.82 131.69 11.53 139.69 30.96 173.97 21.25 187.12 36.1 200.83 50.39 185.4 83.53 161.4 94.96 155.12 120.68 92.26 105.82 93.4 99.53"/><polygon class="cls-2" points="320.26 64.1 338.55 89.82 355.12 95.53 361.4 121.25 418.55 108.68 410.55 77.82 436.83 45.82 409.4 9.25 371.12 22.39 334.55 26.39 316.83 37.82 320.26 64.1"/><path class="cls-3" d="M163.69,28s20.57,27-2.14,55.29l-4.72,6.43S135,85,126,106l6,12h22.29l6.86-23.14,26.14-11.14L198.83,67,180.4,24.53Z"/><path class="cls-3" d="M402,19.39s17.58,29.14,1.29,45.43-18.43,18.86-8.57,39.43,14.57,3,14.57,3l6.43-30,15-27.86-8.57-35.57Z"/><path class="cls-4" d="M127.69,324.1S93.4,447.53,168.83,466.39"/><path class="cls-5" d="M411.4,115.82s14.57,42,36.86,57.43,66.86,68.57-9.43,135.43l28.29-4.29,28.28-42L504,205l-34.28-40.28-29.14-30L426,108.1Z"/><path class="cls-5" d="M427.69,314.68,402,318.1s30,131.15-26.57,168l48-17.14L456,482.68l18,1.71,33.43-56.57-30.85-132Z"/><polygon class="cls-5" points="39.4 300.96 83.12 316.39 80.55 366.96 91.69 450.96 87.4 471.53 47.12 480.1 19.69 468.1 10.26 379.82 39.4 300.96"/><path d="M482.89,298.33c10.59-9.18,20-21,25-35.83,9.29-28,.39-59.83-26.43-94.55A174.29,174.29,0,0,0,458,143.36c-5-4.37-13.92-14.56-17.76-33.79-.45-2.22-2.26-7.62-9.49-9.81a22.8,22.8,0,0,0-6.76-1c-2.33-4.3-4.78-9-5.62-10.91,0-.19-.07-.36-.1-.53-.36-2-.65-3.51,2.46-5.94,6.86-5.35,27.72-21.65,19.22-53.32C435.84,12.74,420.1,1.5,400.79.14,385.15-1,371.52,4.73,363.25,15.39,352.2,11.48,341.38,12.56,336.5,14c-11.38,3.28-34.46,18.7-33.15,45.45,1.32,27.14,27.53,40.15,38.62,41.18,1.3.51,3.74,2.85,4.91,4.49,0,2.49-.44,7.67-1,13a13.11,13.11,0,0,0-3.92,2.68c-2.08,2.08-4.73,4.73-5.11,23.43a178.1,178.1,0,0,0-31.69-20c-25.85-12.69-45.85-12.09-46.71-12.19a9.66,9.66,0,0,0-2.15,0h-.23a9.66,9.66,0,0,0-2.15,0c-.86.1-21.78-.5-47.63,12.19a178.1,178.1,0,0,0-31.69,20c-.38-18.7-3-21.35-5.11-23.43a13.45,13.45,0,0,0-3.91-2.68c-.59-5.32-1-10.5-1-13,1.17-1.64,3.61-4,4.92-4.49,11.08-1,37.29-14,38.62-41.18,1.3-26.75-21.77-42.17-33.15-45.45-4.88-1.4-15.7-2.48-26.75,1.43C139.9,4.73,126.27-1,110.62.14c-19.31,1.36-35.05,12.6-39.17,28C63,59.76,83.82,76.06,90.67,81.41c3.11,2.43,2.82,4,2.46,5.94,0,.17-.06.34-.09.53-.85,1.9-3.3,6.61-5.64,10.91a22.77,22.77,0,0,0-6.75,1c-7.23,2.19-9,7.59-9.49,9.81C67.32,128.8,58.38,139,53.4,143.36A174.29,174.29,0,0,0,30,168C3.16,202.67-5.73,234.48,3.56,262.5c4.93,14.86,14.38,26.65,25,35.83-15.46,26-32.32,89.3-24.7,134.16,5.23,30.76,17,49.62,35,56.07a40.4,40.4,0,0,0,13.76,2.33c17.45,0,33.86-10.09,41.71-15.77h0c14.59,18.14,35.11,30.28,61.2,36.17l.69.15.7.06c8.07.66,15.54,1,22.52,1,27.57,0,47.69-4.94,68.2-13.31a21.46,21.46,0,0,1,16.25,0c20.51,8.37,40.63,13.31,68.18,13.31,7,0,14.45-.32,22.52-1l.7-.06.69-.15c26.09-5.89,46.61-18,61.2-36.17h0c7.85,5.68,24.26,15.77,41.72,15.77a40.43,40.43,0,0,0,13.75-2.33c18-6.45,29.76-25.31,35-56.07,7.62-44.85-9.24-108.11-24.7-134.16ZM343.83,80.67c-2.55-.37-19.74-6.59-20.51-22.23C322.53,42.25,338.8,34.11,342,33.18c1.49-.43,10.66-1.66,18.42,2.82,5.39,3.11,8.92,8.28,10.79,15.8A10,10,0,1,0,390.65,47a47,47,0,0,0-10.58-20.54c6.2-6.64,16-6.59,19.31-6.35,10.47.74,19.41,6.28,21.26,13.18,4.21,15.67-1.84,24.28-12.21,32.38-5.77,4.51-12.14,12.54-9.83,25.23.06,1.63.54,3.57,4,10.39-5.69,1.13-12.53,2.72-20.76,4.94-5.13,1.39-10.32,2.89-15.24,4.41.56-8.47-.14-10.5-.58-11.77C364,92.94,354.61,81.53,343.83,80.67ZM90.77,33.27c1.85-6.9,10.79-12.44,21.26-13.18,3.33-.24,13.11-.29,19.31,6.35A47,47,0,0,0,120.76,47a10,10,0,1,0,19.42,4.82C142,44.28,145.57,39.11,151,36c7.76-4.48,16.94-3.25,18.42-2.82,3.24.93,19.5,9.07,18.71,25.26-.76,15.64-18,21.86-20.51,22.23-10.78.86-20.21,12.27-22.24,18.18-.44,1.27-1.14,3.3-.58,11.77-4.91-1.52-10.11-3-15.24-4.41-8.23-2.22-15.08-3.81-20.77-4.94,3.52-6.82,4-8.76,4.07-10.39,2.3-12.69-4.07-20.72-9.84-25.23C92.61,57.55,86.57,48.94,90.77,33.27ZM45.56,469.74c-13.3-4.78-19.31-24.71-22-40.6-6.63-39,7.94-95.34,21.26-119a153.49,153.49,0,0,0,30.41,14.22c-8.25,38.77-13.36,93,8.13,134h0C75.41,464.31,58.23,474.28,45.56,469.74ZM352.2,491.62c-41,3.26-63.75-2.93-91.17-15.47a17.7,17.7,0,0,0-10.65,0c-27.42,12.54-50.13,18.74-91.17,15.47-27.16-6.28-46.05-19.94-57.74-41.74-9.85-18.39-13.32-40.52-13.32-62.58,0-52.22,19.45-104,19.73-104.77a10,10,0,1,0-18.68-7.14c-.54,1.41-4.75,12.58-9.27,29.42-12.67-4.54-47.79-19.51-57.41-48.67-7-21.3.81-46.86,23.29-76A154.79,154.79,0,0,1,66.58,158.4c7.77-6.81,17.78-19.08,23-39.64,5,.17,15.28,1.61,32.93,6.28,11.29,3,21.16,6.12,27.45,8.34a.86.86,0,0,1,.23.13,10.1,10.1,0,0,0,3.89,1.9c.55,5.74.59,17,.23,27.41a184.92,184.92,0,0,0-28,39.44,10,10,0,1,0,17.65,9.4A166.92,166.92,0,0,1,168,177.3q2.66-2.9,5.43-5.64c11.87-11.76,26.07-20.51,40.9-29.15,19-11,41.38-11.47,41.47-11.48h.07c.18,0,18.3.12,41.15,11.48A157.43,157.43,0,0,1,338,171.67c1.85,1.82,3.65,3.7,5.4,5.62a167.07,167.07,0,0,1,24.11,34.37,10,10,0,1,0,17.66-9.4,185.29,185.29,0,0,0-28-39.44c-.35-10.44-.32-21.67.23-27.41a9.9,9.9,0,0,0,3.92-1.91.94.94,0,0,1,.22-.12c6.29-2.22,16.16-5.36,27.43-8.34,17.66-4.67,28-6.11,32.93-6.28,5.22,20.56,15.23,32.83,23,39.64a154.69,154.69,0,0,1,20.76,21.78c22.49,29.1,30.32,54.66,23.3,76-5.87,17.8-21.25,30.31-35.23,38.39a139,139,0,0,1-22.19,10.28c-4.52-16.84-8.73-28-9.27-29.42a10,10,0,0,0-18.68,7.14c.4,1.05,39.59,105.43,6.41,167.35C398.25,471.68,379.37,485.34,352.2,491.62Zm135.67-62.48c-2.69,15.87-8.69,35.79-22,40.58-12.7,4.59-29.68-5.23-37.83-11.35,21.48-41,16.37-95.24,8.12-134a153.79,153.79,0,0,0,30.43-14.22C479.93,333.8,494.5,390.15,487.87,429.14Z"/></g></g></svg>