<svg xmlns="http://www.w3.org/2000/svg" viewBox="0 0 663.13 443.87"><defs><style>.cls-1{fill:#ebebeb;}.cls-2{fill:#fafafa;}.cls-3{fill:#e0e0e0;}.cls-4{fill:#263238;}.cls-5{fill:#686868;}.cls-6{fill:#333;}.cls-7{fill:#e8505b;}.cls-8{fill:#f7a440;}.cls-9{opacity:0.6;}.cls-10{fill:#fff;}.cls-11{opacity:0.3;}.cls-12{fill:#ffbe9d;}.cls-13{fill:#eb996e;}.cls-14{opacity:0.4;}.cls-15{fill:#515151;}</style></defs><g id="Layer_2" data-name="Layer 2"><g id="Background_Complete" data-name="Background Complete"><rect class="cls-1" x="54.15" y="15.29" width="165.36" height="234.61"/><rect class="cls-2" x="60.76" y="22.09" width="150.44" height="220.81"/><polygon class="cls-3" points="226.5 252.01 219.51 249.9 219.51 11.31 226.5 11.31 226.5 252.01"/><rect class="cls-3" x="60.76" y="85.61" width="153.7" height="2.35"/><rect class="cls-3" x="60.76" y="138.2" width="153.7" height="2.35"/><rect class="cls-3" x="60.76" y="190.78" width="153.7" height="2.35"/><rect class="cls-3" x="54.79" y="164.18" width="162.38" height="7.6" transform="translate(-32 303.96) rotate(-90)"/><rect class="cls-3" x="89.73" y="22.09" width="3.44" height="64.7"/><rect class="cls-3" x="119.42" y="22.09" width="3.44" height="64.7"/><rect class="cls-3" x="149.12" y="22.09" width="3.44" height="64.7"/><rect class="cls-3" x="178.82" y="22.09" width="3.44" height="64.7"/><rect class="cls-3" x="47.16" y="11.31" width="6.99" height="240.04"/><rect class="cls-3" x="47.16" y="8.89" width="179.34" height="6.4"/><rect class="cls-3" x="42.2" y="252.8" width="189.04" height="5.96"/><polygon class="cls-3" points="219.51 249.9 231.23 252.8 42.2 252.8 54.15 249.9 219.51 249.9"/></g><g id="Floor"><path class="cls-4" d="M663.13,432.74c0,.15-148.46.26-331.55.26S0,432.89,0,432.74s148.43-.26,331.58-.26S663.13,432.6,663.13,432.74Z"/></g><g id="Doorbell"><rect class="cls-5" x="281.27" y="101.29" width="32.14" height="45.05"/><rect class="cls-6" x="281.27" y="101.29" width="32.14" height="5.22"/><rect class="cls-6" x="281.27" y="141.11" width="32.14" height="5.22"/><rect class="cls-6" x="287.54" y="109.72" width="19.53" height="10.18"/><path class="cls-5" d="M301.93,114.81c-.05,0-.05-.41-.25-1.1a4.55,4.55,0,0,0-1.68-2.4,4.36,4.36,0,1,0,0,7,4.53,4.53,0,0,0,1.68-2.41c.2-.68.2-1.09.25-1.09a.74.74,0,0,1,0,.29,3.2,3.2,0,0,1-.08.85,4.55,4.55,0,0,1-1.65,2.65,4.77,4.77,0,0,1-4.53.74,4.8,4.8,0,0,1,0-9.06,4.72,4.72,0,0,1,4.53.74,4.53,4.53,0,0,1,1.65,2.64,3.26,3.26,0,0,1,.08.85A.78.78,0,0,1,301.93,114.81Z"/><path class="cls-6" d="M289.79,123.81a.76.76,0,1,1-.76-.76A.76.76,0,0,1,289.79,123.81Z"/><path class="cls-6" d="M295.52,123.81a.76.76,0,1,1-.76-.76A.76.76,0,0,1,295.52,123.81Z"/><path class="cls-6" d="M301.25,123.81a.76.76,0,1,1-.76-.76A.76.76,0,0,1,301.25,123.81Z"/><circle class="cls-6" cx="289.03" cy="128.67" r="0.76"/><path class="cls-6" d="M295.52,128.67a.76.76,0,1,1-.76-.76A.76.76,0,0,1,295.52,128.67Z"/><circle class="cls-6" cx="300.49" cy="128.67" r="0.76"/><circle class="cls-6" cx="289.03" cy="133.53" r="0.76"/><path class="cls-6" d="M295.52,133.53a.76.76,0,0,1-1.52,0,.76.76,0,1,1,1.52,0Z"/><circle class="cls-6" cx="300.49" cy="133.53" r="0.76"/><circle class="cls-7" cx="306.46" cy="128.67" r="2.75"/></g><g id="Character"><path class="cls-8" d="M114.44,395.58,108,421.08l-10.9,18.71a2.7,2.7,0,0,0,1.14,3.77h0a2.64,2.64,0,0,0,2.46,0c4.9-2.64,22.85-12.44,23.22-14.34.42-2.19,8.57-26.45,8.57-26.45Z"/><g class="cls-9"><path class="cls-10" d="M98.25,443.56l26.15-16.09-.29,1.08a4.06,4.06,0,0,1-1.63,2.28c-2.13,1.44-8.11,5.31-21.69,12.71a2.69,2.69,0,0,1-2.54,0Z"/></g><g class="cls-9"><path class="cls-10" d="M121.46,417.86a1.62,1.62,0,0,0-1,1.93,1.57,1.57,0,0,0,1.91,1,1.74,1.74,0,0,0,1-2.06,1.62,1.62,0,0,0-2.1-.82"/></g><path class="cls-4" d="M107.1,434.09a8,8,0,0,0-1.68-2.59,8.32,8.32,0,0,0-2.76-1.37c0-.06.37-.17,1-.09a4.29,4.29,0,0,1,3.43,3C107.24,433.7,107.17,434.08,107.1,434.09Z"/><path class="cls-4" d="M104.36,437c-.15.08-.74-1-2-1.71a23.88,23.88,0,0,0-2.38-1,3,3,0,0,1,2.69.51C104.09,435.63,104.51,437,104.36,437Z"/><path class="cls-4" d="M111.67,430.66c-.16.09-1-1.53-2.83-2.84a26,26,0,0,0-3.51-1.91,6,6,0,0,1,3.86,1.45A6,6,0,0,1,111.67,430.66Z"/><path class="cls-4" d="M114.27,423.07c-.11.14-1.35-.83-3.15-1.4s-3.37-.54-3.38-.71a6.74,6.74,0,0,1,6.53,2.11Z"/><path class="cls-4" d="M116.34,415.64a12.83,12.83,0,0,0-3.24-1.56,12.66,12.66,0,0,0-3.59-.08c0-.07.33-.31,1-.49a5.91,5.91,0,0,1,2.72,0,5.71,5.71,0,0,1,2.42,1.23C116.18,415.21,116.4,415.59,116.34,415.64Z"/><path class="cls-4" d="M113.54,412.68a2.22,2.22,0,0,1,.23-1,6.72,6.72,0,0,1,1.46-2.3,3,3,0,0,1,1.65-1.06,1.08,1.08,0,0,1,1.11.56,1.75,1.75,0,0,1,.09,1.25,3.81,3.81,0,0,1-4.16,2.51,4.43,4.43,0,0,1-3.57-3.38,1.55,1.55,0,0,1,.28-1.25,1.06,1.06,0,0,1,1.22-.25,3.86,3.86,0,0,1,1.43,1.33,7.6,7.6,0,0,1,1.18,2.45,2.44,2.44,0,0,1,.15,1,12.45,12.45,0,0,0-1.66-3.18,3.52,3.52,0,0,0-1.27-1.13.56.56,0,0,0-.67.13,1.06,1.06,0,0,0-.13.83,4,4,0,0,0,3.13,2.9,3.32,3.32,0,0,0,3.56-2.08,1.25,1.25,0,0,0,0-.88.58.58,0,0,0-.61-.32,2.82,2.82,0,0,0-1.41.88A9.78,9.78,0,0,0,113.54,412.68Z"/><path class="cls-8" d="M200.35,399.6,198.94,421s21.32,7.08,21.44,11.06l-41.66.31.84-33.48Z"/><g class="cls-9"><path class="cls-10" d="M186.11,418.84a1.69,1.69,0,0,0-1.23,1.9,1.64,1.64,0,0,0,1.88,1.24,1.79,1.79,0,0,0,1.29-2,1.7,1.7,0,0,0-2.09-1.08"/></g><g class="cls-9"><path class="cls-10" d="M178.72,432.4l.08-3.38,40.25,1.11a2.9,2.9,0,0,1,1.55,2.27Z"/></g><path class="cls-4" d="M199.62,420.84c0,.2-1,.26-2.06.89s-1.58,1.46-1.76,1.37.15-1.25,1.4-2S199.67,420.65,199.62,420.84Z"/><path class="cls-4" d="M203.93,422.78c0,.2-.85.52-1.57,1.35s-.94,1.75-1.14,1.73-.3-1.17.61-2.19S203.93,422.58,203.93,422.78Z"/><path class="cls-4" d="M206.25,428.08c-.18,0-.44-1,.12-2.08s1.52-1.52,1.6-1.34-.52.75-1,1.65S206.46,428.07,206.25,428.08Z"/><path class="cls-4" d="M199.4,415.92c-.09.18-1-.13-2.17-.08s-2.06.38-2.16.2.78-.88,2.14-.91S199.5,415.76,199.4,415.92Z"/><g class="cls-11"><polygon points="200.07 403.85 199.82 407.67 179.36 406.86 179.44 403.42 200.07 403.85"/></g><path class="cls-4" d="M199.6,411.59a3.78,3.78,0,0,1-2.08-.07,9.08,9.08,0,0,1-2.16-.74,10.09,10.09,0,0,1-1.18-.67,2.68,2.68,0,0,1-.62-.51.89.89,0,0,1-.06-1.08,1.13,1.13,0,0,1,.91-.44,2.88,2.88,0,0,1,.78.13,7.72,7.72,0,0,1,1.28.48,7.62,7.62,0,0,1,1.89,1.32c.94.93,1.24,1.7,1.17,1.74s-.54-.59-1.5-1.36a8.43,8.43,0,0,0-1.83-1.1,8.32,8.32,0,0,0-1.19-.41c-.44-.13-.81-.14-.93.05s-.05.1,0,.23a1.79,1.79,0,0,0,.45.38,11.07,11.07,0,0,0,3.08,1.49A14,14,0,0,1,199.6,411.59Z"/><path class="cls-4" d="M199.33,411.88a3.47,3.47,0,0,1-.49-2,6.83,6.83,0,0,1,.36-2.27,6.3,6.3,0,0,1,.57-1.25,1.7,1.7,0,0,1,1.36-1,1,1,0,0,1,.85.6,2.76,2.76,0,0,1,.19.78,4.66,4.66,0,0,1,0,1.4,4.78,4.78,0,0,1-1,2.13c-.84,1-1.7,1.27-1.71,1.2s.65-.47,1.31-1.49a4.94,4.94,0,0,0,.72-1.94,4.09,4.09,0,0,0,0-1.21c0-.44-.2-.81-.37-.77s-.57.32-.75.67a6.73,6.73,0,0,0-.55,1.11,7.69,7.69,0,0,0-.47,2.07C199.25,411.08,199.44,411.85,199.33,411.88Z"/><polygon class="cls-6" points="200.46 212.78 136.97 212.31 106.29 413.8 132.64 417.15 166.41 251.47 176.52 417.74 176.54 418.23 205.04 417.73 200.46 212.78"/><path class="cls-6" d="M168.54,247.13a13.11,13.11,0,0,1,.16-2.46c.14-1.51.31-3.6.38-5.91s0-4.4,0-5.92a14.78,14.78,0,0,1,0-2.46,9.89,9.89,0,0,1,.39,2.44,48.05,48.05,0,0,1,.18,6,50.3,50.3,0,0,1-.54,5.94A10.82,10.82,0,0,1,168.54,247.13Z"/><path class="cls-6" d="M173.77,231s.11-.11.37-.14a1.57,1.57,0,0,1,1.05.32,1.85,1.85,0,0,1,.8,1.45,1.85,1.85,0,0,1-3.21,1.09,1.87,1.87,0,0,1-.26-1.64,1.61,1.61,0,0,1,.65-.89c.22-.14.37-.14.38-.11s-.51.3-.67,1.09a1.56,1.56,0,0,0,.27,1.25,1.4,1.4,0,0,0,2.35-.8,1.51,1.51,0,0,0-.54-1.15C174.35,230.88,173.77,231,173.77,231Z"/><path class="cls-6" d="M157.51,226.9s-.19.21-.58.53a10.6,10.6,0,0,1-1.81,1.13,14.09,14.09,0,0,1-3,1.13,17.12,17.12,0,0,1-3.87.49,16.56,16.56,0,0,1-3.86-.49,14.68,14.68,0,0,1-3-1.12,10.54,10.54,0,0,1-1.81-1.14c-.4-.31-.6-.49-.58-.52s.94.6,2.55,1.32a15.88,15.88,0,0,0,2.93,1,16.61,16.61,0,0,0,7.51,0,16.66,16.66,0,0,0,2.93-1C156.57,227.5,157.45,226.82,157.51,226.9Z"/><path class="cls-6" d="M196.81,231.16a4.18,4.18,0,0,1-1.74.37,12.32,12.32,0,0,1-8.14-2.32,4.36,4.36,0,0,1-1.29-1.23,22.12,22.12,0,0,0,5.3,2.61A21.48,21.48,0,0,0,196.81,231.16Z"/><path class="cls-6" d="M116.34,415.64a1.88,1.88,0,0,0,.19-.43c.09-.3.22-.74.36-1.34.28-1.18.66-2.93,1.11-5.19.91-4.53,2.15-11.1,3.62-19.22,3-16.25,6.91-38.73,11.25-63.55s8.32-47.29,11.19-63.58c1.47-8.11,2.66-14.68,3.48-19.25l1-5.23q.18-.85.27-1.35a4.07,4.07,0,0,1,.11-.46s0,.16-.06.47l-.21,1.36c-.21,1.23-.51,3-.89,5.25-.78,4.57-1.92,11.15-3.31,19.28-2.83,16.29-6.73,38.77-11,63.6S125,373.29,122,389.52c-1.53,8.12-2.82,14.68-3.79,19.2S116.54,415.72,116.34,415.64Z"/><path class="cls-6" d="M197.26,413.37s0-.16,0-.47,0-.78,0-1.36c0-1.23,0-3-.05-5.25s0-5.06-.09-8.29-.08-6.92-.19-11c-.15-8.14-.47-17.83-.93-28.58s-1.18-22.57-2.1-35-2-24.18-3.14-34.88-2.28-20.34-3.34-28.41c-.5-4-1-7.69-1.46-10.89s-.82-6-1.15-8.22-.56-4-.73-5.19q-.12-.85-.18-1.35a4.07,4.07,0,0,1,0-.46s0,.15.09.45.13.77.23,1.35c.2,1.2.47,2.94.83,5.17s.79,5,1.24,8.21,1,6.84,1.54,10.88c1.1,8.07,2.28,17.7,3.45,28.41s2.25,22.5,3.19,34.89,1.58,24.22,2.05,35,.71,20.45.83,28.59c.08,4.07.08,7.76.11,11s0,6,0,8.3,0,4-.05,5.25c0,.58,0,1,0,1.36S197.26,413.37,197.26,413.37Z"/><path class="cls-12" d="M262.9,135.11l-39.67,11.58L201,133.57l-16.87,20,31.46,13.61a16.32,16.32,0,0,0,14-.46l39-20Z"/><path class="cls-2" d="M272,131.29l4.91-2.55,13.66-7.11a1.28,1.28,0,0,1,1.58,1.81l-8.71,7.16L287,132a3.14,3.14,0,0,1,1.67,1.5l1.93,3.86s2.21.23,2.44,1.67-1.44,1.93-1.44,1.93l.41,1.68a2.85,2.85,0,0,1-.4,2.29h0c-2.11.87-3.8-3.56-3.8-3.56l-2.25.24-2.46,5c-3.13.76-1.65-4.17-1.65-4.17l-1.38.34c-1.38.35-2.1,1.32-4.25,2.43s-6.37,1.48-6.37,1.48L266.37,149,256.9,136Z"/><path class="cls-4" d="M272,131.29a.85.85,0,0,0-.27.06l-.78.22-3,.88-11.08,3.38-.23.07.14.2c2.65,3.65,5.85,8.05,9.42,13l.14.18.18-.13,3.12-2.3-.12,0a22,22,0,0,0,6.16-1.37,18.71,18.71,0,0,0,2.85-1.71,5.48,5.48,0,0,1,1.41-.75c.5-.14,1.08-.27,1.62-.41l-.3-.32a8.22,8.22,0,0,0-.34,2.83,2.08,2.08,0,0,0,.68,1.45,2,2,0,0,0,1.61.22l.11,0,.06-.11,2.46-5-.2.14,2-.2.28,0-.27-.17a11.63,11.63,0,0,0,1.2,2.26,3.4,3.4,0,0,0,2.09,1.57h.37l.35-.08.08,0h.05l.12-.1h0v0l.08-.14a2.85,2.85,0,0,0,.16-.3,3.13,3.13,0,0,0,.27-1.28,5.16,5.16,0,0,0-.22-1.25l-.29-1.17-.19.31a2.45,2.45,0,0,0,1.35-.91,1.84,1.84,0,0,0,.19-1.63,2.15,2.15,0,0,0-1.12-1.14,4.64,4.64,0,0,0-1.45-.42l.2.13-1.23-2.42-.6-1.2a3.53,3.53,0,0,0-.8-1.14,3.32,3.32,0,0,0-1.18-.73l-1.21-.46-2.37-.9.07.4,8.69-7.18,0,0,0,0a1.48,1.48,0,0,0-1.83-2.09h0l-13.54,7.14-3.67,2-1,.52a1.83,1.83,0,0,0-.31.2,1.89,1.89,0,0,0,.34-.14l1-.48L277,128.8l13.62-7h0a1,1,0,0,1,1.18.28,1.07,1.07,0,0,1,.15,1.25l.05-.06-8.73,7.14-.32.25.38.15,2.37.91,1.2.46a3,3,0,0,1,1,.63,3.17,3.17,0,0,1,.69,1l.6,1.2,1.22,2.43.06.11.14,0c.84.12,1.86.47,2.15,1.24a1.38,1.38,0,0,1-.14,1.17,2,2,0,0,1-1.05.69l-.25.07.06.24.29,1.17a4.72,4.72,0,0,1,.2,1.13,2.6,2.6,0,0,1-.23,1.07,1.92,1.92,0,0,1-.12.25l-.08.12h0l.11-.09h-.09l-.25.07H291a2.87,2.87,0,0,1-1.72-1.35,10.71,10.71,0,0,1-1.14-2.14l-.08-.19-.19,0-.29,0-2,.21h-.14l-.06.13c-.85,1.7-1.68,3.39-2.46,5l.17-.14a1.46,1.46,0,0,1-1.18-.12,1.58,1.58,0,0,1-.48-1.09,7.81,7.81,0,0,1,.31-2.64l.12-.42-.42.1c-.56.15-1.08.26-1.66.43a6.37,6.37,0,0,0-1.53.81,19.21,19.21,0,0,1-2.77,1.69,22.11,22.11,0,0,1-6,1.34h-.07l-.05,0-3.11,2.31.32.05L257,135.9l-.08.26,11-3.53,2.95-1,.76-.26A1.39,1.39,0,0,0,272,131.29Z"/><path class="cls-4" d="M281.15,142.47c0,.06,1.1-.14,2.94-.41s4.47-.61,7.56-.87h0a1.72,1.72,0,0,0,1.59-2.39,3.27,3.27,0,0,0-2.63-1.84c-1.18-.19-2.26-.25-3.33-.44s-2.07-.39-3-.63-1.86-.51-2.69-.79a2.9,2.9,0,0,1-1-.54.71.71,0,0,1-.21-.85,2.54,2.54,0,0,1,.62-.77l.68-.68c.41-.43.78-.79,1.09-1.06.62-.55,1-.78,1-.82a3.53,3.53,0,0,0-1.14.66,14.51,14.51,0,0,0-1.16,1l-.7.65a2.76,2.76,0,0,0-.74.86,1.11,1.11,0,0,0,.27,1.29,3.33,3.33,0,0,0,1.19.66c.83.3,1.74.59,2.71.85s2,.48,3.06.66,2.22.27,3.31.45a2.8,2.8,0,0,1,2.25,1.52,1.23,1.23,0,0,1-1,1.72h-.05c-3.1.3-5.72.7-7.57,1.06-.92.18-1.64.34-2.14.47A3.32,3.32,0,0,0,281.15,142.47Z"/><path class="cls-4" d="M281.52,135.47a4.75,4.75,0,0,0,2.61.35,9.85,9.85,0,0,0,1.39-.18l-.24-.14c.29.67.54,1.11.62,1.07s0-.51-.2-1.22l-.05-.16h-.19l-1.35.1A11.77,11.77,0,0,0,281.52,135.47Z"/><polygon class="cls-8" points="191.96 119.05 217.52 138.66 199.6 162.26 177.74 149.85 191.96 119.05"/><path class="cls-8" d="M192,119.05h0c-3.7-2.28-16.5-5.09-16.5-5.09l-24.73-2.68-21.46,9.85,8.82,36.93-7.72,69.63,73.65,4Z"/><rect class="cls-2" x="149.91" y="149.94" width="12.69" height="3.42" transform="translate(312.51 303.3) rotate(180)"/><path class="cls-4" d="M149.89,149.92h12.73v3.47H149.89Zm12.68,0H149.94v3.38h12.63Z"/><path class="cls-4" d="M195,140.42a31.09,31.09,0,0,0,.36-5.67,31.69,31.69,0,0,0-.15-5.68,30.52,30.52,0,0,0-.37,5.67A32.2,32.2,0,0,0,195,140.42Z"/><path class="cls-12" d="M148.64,77.39l2.7,38.34a12,12,0,0,0,11.93,11.12h0a12,12,0,0,0,11.93-12.74c-.24-3.65-.46-6.64-.46-6.64s9.29-1.44,9.4-10.72c.07-5.36-.86-17.53-1.65-26.85a12.18,12.18,0,0,0-12.13-11.14h-5.61A17.18,17.18,0,0,0,148.64,77.39Z"/><path class="cls-13" d="M174.76,107.34a21.64,21.64,0,0,1-12.1-3.44s2.86,6.68,12.12,5.84Z"/><path class="cls-4" d="M180.6,81.63A1.33,1.33,0,0,1,179.32,83a1.26,1.26,0,0,1-1.36-1.2,1.32,1.32,0,0,1,1.27-1.34A1.28,1.28,0,0,1,180.6,81.63Z"/><path class="cls-4" d="M180.89,79.21c-.16.17-1.17-.57-2.59-.57s-2.48.72-2.63.54.09-.38.55-.72a3.56,3.56,0,0,1,2.1-.64,3.47,3.47,0,0,1,2.06.66C180.82,78.82,181,79.13,180.89,79.21Z"/><path class="cls-4" d="M166.89,81.63A1.33,1.33,0,0,1,165.61,83a1.26,1.26,0,0,1-1.36-1.2,1.32,1.32,0,0,1,1.27-1.34A1.28,1.28,0,0,1,166.89,81.63Z"/><path class="cls-4" d="M166.87,79.48c-.16.17-1.17-.58-2.6-.57s-2.47.72-2.62.54.09-.39.55-.72a3.63,3.63,0,0,1,2.1-.65,3.47,3.47,0,0,1,2.06.67C166.8,79.09,167,79.4,166.87,79.48Z"/><path class="cls-4" d="M171.91,89.7a9.93,9.93,0,0,1,2.32-.42c.36,0,.71-.11.77-.36a1.88,1.88,0,0,0-.24-1.08c-.35-.88-.7-1.8-1.08-2.77-1.5-3.95-2.58-7.19-2.42-7.25s1.5,3.09,3,7l1,2.79a2.07,2.07,0,0,1,.19,1.43.92.92,0,0,1-.6.53,2.5,2.5,0,0,1-.62.09A9.76,9.76,0,0,1,171.91,89.7Z"/><path class="cls-4" d="M167.24,74.53c-.14.39-1.57.2-3.24.4s-3,.66-3.25.31c-.1-.16.14-.53.68-.9a5.49,5.49,0,0,1,2.41-.85,5.35,5.35,0,0,1,2.53.3C167,74,167.3,74.34,167.24,74.53Z"/><path class="cls-4" d="M180.87,76.41c-.25.32-1.23,0-2.41,0s-2.18.22-2.41-.12c-.1-.16,0-.49.49-.8a3.41,3.41,0,0,1,2-.53,3.3,3.3,0,0,1,1.93.66C180.85,75.92,181,76.25,180.87,76.41Z"/><path class="cls-12" d="M151.77,84.35c-.16-.06-6.38-1.88-6.18,4.46s6.53,4.84,6.54,4.65S151.77,84.35,151.77,84.35Z"/><path class="cls-13" d="M150.11,91.12s-.1.08-.29.18a1.16,1.16,0,0,1-.82,0,2.75,2.75,0,0,1-1.35-2.41,3.74,3.74,0,0,1,.26-1.6,1.27,1.27,0,0,1,.81-.87.56.56,0,0,1,.66.28c.09.17.05.3.09.31s.13-.11.07-.37a.74.74,0,0,0-.26-.39.86.86,0,0,0-.62-.14,1.54,1.54,0,0,0-1.12,1,3.68,3.68,0,0,0-.33,1.78,2.87,2.87,0,0,0,1.7,2.69,1.19,1.19,0,0,0,1-.2C150.11,91.28,150.14,91.13,150.11,91.12Z"/><path class="cls-4" d="M148.24,84.14a3.35,3.35,0,0,1,3,1.56c.41.91.5,1.94.92,2.84a2.24,2.24,0,0,0,2.31,1.5,2,2,0,0,0,1.32-1.45,5.38,5.38,0,0,0,0-2c-.38-3-1-5.9-1.12-8.89A15.32,15.32,0,0,1,156.61,69,8.35,8.35,0,0,1,164,64.86c2,.16,3.78,1.19,5.74,1.46a7.72,7.72,0,0,0,6.44-2.15,14.7,14.7,0,0,1,1.2-.86,3.62,3.62,0,0,0-.67-2c-3.88-3.59-10.89-4.59-16-3.3a18.51,18.51,0,0,0-12.16,9.73c-2.21,4.81-1.55,11.5-.33,16.37"/><path class="cls-8" d="M182.59,68.47s-24.35-7.84-34.88,13.23c0,0-1.57-5.27-1.57-8.1,0-1.88,1.12-13.12,12.69-16.66C158.83,56.94,176.26,50.29,182.59,68.47Z"/><path class="cls-4" d="M161.67,69a5.3,5.3,0,0,0,8.43.77,3.12,3.12,0,0,0,5.9-.31,7.14,7.14,0,0,0,2.37,1.73,2.43,2.43,0,0,0,2.71-.56,2.37,2.37,0,0,0-.17-2.8,5.79,5.79,0,0,0-2.47-1.66,17.82,17.82,0,0,0-9.19-1.39,12.38,12.38,0,0,0-8.05,4.39"/><g class="cls-14"><path d="M182.59,68.47A11.31,11.31,0,0,0,174.85,65c-7.18-.31-20.63,3.72-27.14,16.75,0,0-1.57-5.27-1.57-8.1,0-1.88,1.12-13.12,12.69-16.66C158.83,56.94,176.26,50.29,182.59,68.47Z"/></g><path class="cls-8" d="M148.73,79.24a45.77,45.77,0,0,1,14.18-13.59c5.6-3.5,14.86-7,21.23-8.65a14,14,0,0,1,5.87-.62,5.31,5.31,0,0,1,4.35,3.56c.6,2.41-3.67,6.12-5.67,7.58a66.12,66.12,0,0,1-6.1,3.6s.06-4.46-7.08-5.38C165.8,64.49,148.73,79.24,148.73,79.24Z"/><path class="cls-3" d="M168.7,61a23,23,0,0,1,7-2.39,8.9,8.9,0,0,0-1.91-1.15,18.36,18.36,0,0,0-5.48,1.84Z"/><path class="cls-1" d="M150.12,84.58a12.46,12.46,0,0,0,1.31,1l3.2,2.34A36,36,0,0,0,159.29,91a27.74,27.74,0,0,0-4.35-3.56C152.45,85.64,150.23,84.37,150.12,84.58Z"/><path class="cls-1" d="M149.47,93.83a14.92,14.92,0,0,0,3.72,4.24,15.09,15.09,0,0,0,4.79,3c.08-.14-2.11-1.39-4.45-3.39S149.59,93.73,149.47,93.83Z"/><path class="cls-2" d="M184.37,90.76a19.51,19.51,0,0,1-3.18.68c-4.59-.25-6.21-1.8-13.71-.2a10.4,10.4,0,0,1-3.69.12,31.56,31.56,0,0,0-4.5-.32l-1.44,10s8.91,7.79,16.93,6.92C185.15,106.86,186.38,94.75,184.37,90.76Z"/><path class="cls-4" d="M184.37,90.76s.09.27.27.73a11.48,11.48,0,0,1,.43,2.19,15.79,15.79,0,0,1-1.45,8,10.8,10.8,0,0,1-9.63,6.27,16.94,16.94,0,0,1-7-1.38,34.18,34.18,0,0,1-6.73-3.74c-.82-.58-1.62-1.18-2.36-1.81l0,.09c.51-3.51,1-6.89,1.44-10l-.1.09a39.31,39.31,0,0,1,5.31.4,10.44,10.44,0,0,0,2.51-.14c.8-.14,1.56-.32,2.32-.44a24.1,24.1,0,0,1,4.28-.35,23.21,23.21,0,0,1,3.65.39c1.11.2,2.1.35,3,.43a7.23,7.23,0,0,0,1.22,0c.37-.06.7-.13,1-.2,1.18-.29,1.81-.5,1.81-.5a12.06,12.06,0,0,1-7,.13,22.14,22.14,0,0,0-3.68-.43,24.45,24.45,0,0,0-4.31.34c-.76.11-1.53.29-2.32.43a10.09,10.09,0,0,1-2.47.12,42.39,42.39,0,0,0-5.32-.41h-.08V91c-.46,3.14-.95,6.51-1.45,10v.06l0,0c.76.64,1.55,1.24,2.38,1.82a33.79,33.79,0,0,0,6.77,3.76,17.13,17.13,0,0,0,7.06,1.39,11.69,11.69,0,0,0,6.16-2,11.44,11.44,0,0,0,3.6-4.36,15.77,15.77,0,0,0,1.4-8,10.94,10.94,0,0,0-.47-2.19C184.48,91,184.37,90.76,184.37,90.76Z"/><path class="cls-3" d="M183.53,96.61a24.5,24.5,0,0,1-22.27-.41,16.11,16.11,0,0,0,4.73,4.29c2.2,1.11,4.76,1.17,7.22,1.17a13,13,0,0,0,5.76-.92,13.33,13.33,0,0,0,4.31-4.15"/><path class="cls-3" d="M162.32,94.08a13.16,13.16,0,0,0,2.87.76,46.44,46.44,0,0,0,14.31.51,12.43,12.43,0,0,0,2.92-.56,22.34,22.34,0,0,0-3,.19,64.37,64.37,0,0,1-7.12.15,67,67,0,0,1-7.08-.65A22,22,0,0,0,162.32,94.08Z"/><path class="cls-3" d="M160.6,98.26a8.1,8.1,0,0,0,2,2,16.93,16.93,0,0,0,12.77,3.54,8.43,8.43,0,0,0,2.71-.7c0-.09-1,.19-2.75.33a18.73,18.73,0,0,1-6.57-.6,19.22,19.22,0,0,1-5.94-2.86C161.4,99,160.66,98.19,160.6,98.26Z"/><path class="cls-4" d="M160.44,96a3.41,3.41,0,0,0,.8.51,17.64,17.64,0,0,0,2.35,1.09,23.45,23.45,0,0,0,3.69,1.1,28,28,0,0,0,4.69.52,26.71,26.71,0,0,0,4.71-.37,23.91,23.91,0,0,0,3.72-1,18.82,18.82,0,0,0,2.39-1,3.41,3.41,0,0,0,.81-.49c0-.09-1.25.51-3.31,1.15a26.39,26.39,0,0,1-3.69.85,29,29,0,0,1-4.62.33,30.55,30.55,0,0,1-4.6-.47,27.26,27.26,0,0,1-3.66-1C161.67,96.5,160.48,95.87,160.44,96Z"/><path class="cls-4" d="M167.89,96a25.76,25.76,0,0,0,11.84-.48c0-.15-2.65.28-5.91.41S167.91,95.81,167.89,96Z"/><polygon class="cls-8" points="278.32 220.91 278.32 184.46 165.52 184.46 165.52 220.91 225.3 221.14 278.32 220.91"/><g class="cls-14"><rect x="165.52" y="184.46" width="112.8" height="36.45"/></g><polygon class="cls-8" points="225.3 221.14 278.32 220.91 278.32 184.46 225.48 184.46 225.3 221.14"/><rect class="cls-4" x="249.74" y="184.46" width="7.03" height="6.32" transform="translate(506.51 375.24) rotate(180)"/><rect class="cls-2" x="260.56" y="212.87" width="14" height="6.29" transform="translate(535.11 432.03) rotate(180)"/><path class="cls-4" d="M260.53,212.86h14.05v6.31H260.53Zm14,0H260.58v6.27h13.95Z"/><path class="cls-12" d="M139.13,158.16,136.79,177l35,20.77-5.44,12-39.78-16.07c-4.82-2.44-8.95-6.06-8.61-11.49l1.92-26.4Z"/><path class="cls-8" d="M129.27,121.13a19,19,0,0,0-6.39,11.37c-1.34,7.31-5.89,27.74-5.89,27.74l24,2.84,0-5.61c0-.08,2.23-10.54,2.23-10.54l-4.47-14.43Z"/><path class="cls-4" d="M117.94,160.33a9.85,9.85,0,0,0,1.64.3l4.49.62c3.8.5,9.05,1.16,14.85,1.85l2,.24.26,0,0-.27c.4-5.35.85-10.11,1.17-13.52l.39-4a8.09,8.09,0,0,0,.08-1.47,8.45,8.45,0,0,0-.27,1.45c-.15.94-.34,2.31-.55,4-.42,3.41-.92,8.16-1.33,13.52l.29-.24-2-.24c-5.8-.69-11.06-1.29-14.86-1.7l-4.51-.45A10.86,10.86,0,0,0,117.94,160.33Z"/><path class="cls-4" d="M131.23,122.44c0,.09.87.46,2.21,1.28a19.37,19.37,0,0,1,4.59,4,19.59,19.59,0,0,1,3.13,5.19c.58,1.45.8,2.4.89,2.38a7.72,7.72,0,0,0-.55-2.51,16.94,16.94,0,0,0-7.88-9.33A7.82,7.82,0,0,0,131.23,122.44Z"/><path class="cls-2" d="M172.33,196.75l5.14,2.36,2.21-.85,11.21-.7,7,1.55.2.4c0,3.81-7.22,2.3-9.42,2.91s-.2,5.31-.2,5.31,9.92,12.93,11.65,16c.86,1.56.58,2.41.08,2.87a1.49,1.49,0,0,1-1.87.07l-3.67-2.59s-10.07.58-10.76.24a10.43,10.43,0,0,1-2.45-2.59,76.07,76.07,0,0,0-16-11.77Z"/><path class="cls-4" d="M172.33,196.75l-.12.21c-.1.17-.21.39-.36.66-.33.61-.79,1.47-1.37,2.57-1.22,2.31-2.95,5.61-5.11,9.72l-.08.15.15.08a77,77,0,0,1,15.88,11.79l0,0a10.51,10.51,0,0,0,2.35,2.57,1.14,1.14,0,0,0,.5.19l.45,0,.89,0c.6,0,1.2,0,1.8,0,2.41-.06,4.89-.18,7.43-.32l-.16,0,2.37,1.68,1.21.85a1.82,1.82,0,0,0,1.62.34,1.66,1.66,0,0,0,1.16-1.23,2.8,2.8,0,0,0-.2-1.63,17.16,17.16,0,0,0-1.59-2.66c-3.49-5-7.07-9.69-10.42-14.09l0,0a12.34,12.34,0,0,1-.66-2.09,4.66,4.66,0,0,1-.07-2.06,1.18,1.18,0,0,1,.5-.72,2.59,2.59,0,0,1,.93-.22c.69-.06,1.39-.06,2.09-.06a20.79,20.79,0,0,0,4.11-.29,4.26,4.26,0,0,0,1.87-.83,2.43,2.43,0,0,0,.83-1.85v0l0-.05-.2-.4-.05-.09-.1,0-7-1.53h-.06l-11.21.76h0l-2.2.87h.09l-3.88-1.71-1-.42-.33-.13.35.18,1,.48,3.77,1.8,0,0,0,0,2.21-.83h0l11.22-.64h-.06l7,1.58-.14-.12.2.41,0-.1a2,2,0,0,1-.68,1.52,3.91,3.91,0,0,1-1.69.72,20.19,20.19,0,0,1-4,.26c-.7,0-1.41,0-2.14.06a2.89,2.89,0,0,0-1.13.28,1.68,1.68,0,0,0-.72,1,5,5,0,0,0,.06,2.29,13.2,13.2,0,0,0,.68,2.19v0l0,0c3.34,4.4,6.92,9.09,10.39,14.09a16.56,16.56,0,0,1,1.53,2.55,2.3,2.3,0,0,1,.19,1.32,1.17,1.17,0,0,1-.8.85,1.32,1.32,0,0,1-1.18-.26l-1.21-.85-2.38-1.68-.07-.05h-.09c-2.54.15-5,.27-7.41.34-.6,0-1.2,0-1.78,0h-.87l-.42,0a.64.64,0,0,1-.31-.12,10.2,10.2,0,0,1-2.21-2.42l0,0h0a75.51,75.51,0,0,0-16-11.75l.08.22,4.89-9.71,1.32-2.65c.13-.28.25-.51.33-.69A.86.86,0,0,0,172.33,196.75Z"/><path class="cls-4" d="M185.2,215.38a52,52,0,0,0,4.63,4.49c1.31,1.21,2.5,2.29,3.38,3.06a8.61,8.61,0,0,0,1.48,1.18c.12-.12-1.89-2.21-4.51-4.62A33.29,33.29,0,0,0,185.2,215.38Z"/><path class="cls-4" d="M182.15,217.88a14.27,14.27,0,0,0,2.91,3.52,18,18,0,0,0,3.45,3,23.1,23.1,0,0,0-3.08-3.36A34.53,34.53,0,0,0,182.15,217.88Z"/></g><g id="Door"><rect class="cls-6" x="567.25" width="18.6" height="432.74"/><rect class="cls-5" x="382.04" y="18.26" width="185.21" height="414.49"/><rect class="cls-6" x="370.09" width="17.14" height="432.74"/><rect class="cls-6" x="370.09" width="215.76" height="18.26"/><path class="cls-15" d="M469.54,111.06s0-.11,0-.33,0-.54,0-1c0-.86,0-2.09,0-3.68,0-3.23,0-7.92-.06-13.86,0-11.89-.07-28.78-.11-48.88l.23.24-55,0h0l.26-.26c0,25,0,48.34,0,67.7l-.21-.22,39.84.12,11.15.05,2.94,0,1,0-1,0-2.9,0-11.1.06-40,.11h-.22v-.22c0-19.36,0-42.65,0-67.7V43.1h.26l55,0h.23v.23c0,20.16-.09,37.1-.12,49,0,5.92,0,10.59-.06,13.81,0,1.57,0,2.79,0,3.63,0,.4,0,.7,0,.93S469.54,111.07,469.54,111.06Z"/><path class="cls-15" d="M460.49,102.68s0-.09,0-.25,0-.43,0-.74c0-.66,0-1.61,0-2.82,0-2.49,0-6.08-.06-10.61,0-9.09-.07-22-.12-37.19l.24.24-37.87,0,.26-.25V65.23c0,4.6,0,9.1,0,13.44,0,8.68,0,16.76,0,24l-.21-.21,27.48.11,7.66.06,2,0,.71,0s-.22,0-.66,0l-2,0-7.61,0-27.61.12h-.21v-.22c0-7.25,0-15.33,0-24,0-4.34,0-8.84,0-13.44V51.08l.26-.27,37.87,0h.24v.23c-.05,15.29-.09,28.22-.12,37.34,0,4.51-.05,8.08-.06,10.56,0,1.19,0,2.12,0,2.78l0,.7A1.66,1.66,0,0,1,460.49,102.68Z"/><path class="cls-15" d="M469.54,254s0-.22,0-.63,0-1,0-1.82c0-1.62,0-4,0-7,0-6.14,0-15.07-.07-26.3,0-22.44-.07-54-.12-90.78l.25.24-55,0h0l.26-.26c0,49.29-.06,94-.08,126.57l-.18-.19,40.16.1,10.95,0,2.86,0,1,0-1,0-2.83,0-10.91,0-40.27.1h-.19V254c0-32.58-.05-77.28-.07-126.57v-.26h55.47v.25c-.05,36.8-.09,68.47-.12,91,0,11.2-.05,20.11-.07,26.24,0,3,0,5.39,0,7,0,.78,0,1.37,0,1.79S469.54,254,469.54,254Z"/><path class="cls-15" d="M460.49,246.94s0-.19,0-.56,0-.92,0-1.63c0-1.44,0-3.54,0-6.27,0-5.47-.05-13.4-.08-23.35,0-19.88-.07-47.78-.11-79.94l.25.25H422.62l.26-.26c0,44.68-.07,84.78-.09,111.75l-.17-.17,27.79.1,7.47,0,1.94,0h.67s-.21,0-.64,0l-1.91,0-7.43,0-27.89.1h-.17v-.18c0-27-.06-67.07-.09-111.75v-.26h38.38v.25c-.05,32.23-.09,60.19-.12,80.12,0,9.92-.05,17.83-.07,23.29,0,2.7,0,4.78,0,6.22,0,.69,0,1.22,0,1.59S460.49,246.94,460.49,246.94Z"/><path class="cls-15" d="M469.54,414.26s0-.22,0-.63,0-1,0-1.82c0-1.62,0-4,0-7,0-6.14,0-15.07-.07-26.3,0-22.44-.07-54.05-.12-90.79l.25.25h-55l.26-.26c0,49.3-.06,94-.08,126.58l-.18-.19,40.16.1,10.95.05,2.86,0c.65,0,1,0,1,0l-1,0-2.83,0-10.91,0-40.27.1h-.19v-.18c0-32.58-.05-77.28-.07-126.58v-.26h.26l55,0h.25v.24c-.05,36.81-.09,68.48-.12,91,0,11.2-.05,20.11-.07,26.24,0,3,0,5.38,0,7,0,.78,0,1.37,0,1.79S469.54,414.26,469.54,414.26Z"/><path class="cls-15" d="M460.49,407.24s0-.19,0-.56,0-.92,0-1.63c0-1.44,0-3.55,0-6.27,0-5.47-.05-13.4-.08-23.35,0-19.88-.07-47.78-.11-79.94l.25.25H422.62l.26-.26c0,44.68-.07,84.78-.09,111.75l-.17-.17,27.79.1,7.47,0,1.94,0h.67s-.21,0-.64,0l-1.91,0-7.43,0-27.89.1h-.17v-.18c0-27-.06-67.07-.09-111.75v-.26h38.38v.26c-.05,32.23-.09,60.19-.12,80.11,0,9.93-.05,17.84-.07,23.3,0,2.7,0,4.78,0,6.21,0,.7,0,1.23,0,1.6S460.49,407.24,460.49,407.24Z"/><path class="cls-15" d="M423.5,102.66a36.77,36.77,0,0,1-4.69,4.16,38.26,38.26,0,0,1-5,3.76,37.33,37.33,0,0,1,4.7-4.16A37.82,37.82,0,0,1,423.5,102.66Z"/><path class="cls-15" d="M469.85,110.06a22.23,22.23,0,0,1-4.82-3.27,21.83,21.83,0,0,1-4.17-4.06c.1-.1,2,1.64,4.5,3.66S469.93,109.94,469.85,110.06Z"/><path class="cls-15" d="M468.72,45a27.34,27.34,0,0,1-4.15,3.34,27.87,27.87,0,0,1-4.45,2.92,26.07,26.07,0,0,1,4.15-3.34A27.05,27.05,0,0,1,468.72,45Z"/><path class="cls-15" d="M422.78,50.22a18.89,18.89,0,0,1-4.55-2.56,18.93,18.93,0,0,1-4-3.34,42.29,42.29,0,0,1,4.31,2.91A42.62,42.62,0,0,1,422.78,50.22Z"/><path class="cls-15" d="M422.42,135.35a14.85,14.85,0,0,1-4.61-3.77,14.6,14.6,0,0,1-3.17-5c.14-.08,1.4,2.27,3.56,4.69S422.52,135.22,422.42,135.35Z"/><path class="cls-15" d="M468.85,127.33a28.92,28.92,0,0,1-3.9,3.77,27.93,27.93,0,0,1-4.24,3.38,28.27,28.27,0,0,1,3.9-3.77A28.29,28.29,0,0,1,468.85,127.33Z"/><path class="cls-15" d="M422.4,247.52c.09.13-1.74,1.45-3.81,3.29s-3.61,3.48-3.73,3.38a15.78,15.78,0,0,1,3.39-3.77A15.5,15.5,0,0,1,422.4,247.52Z"/><path class="cls-15" d="M468,253.84a23.28,23.28,0,0,1-3.81-3.17,24,24,0,0,1-3.47-3.55,47,47,0,0,1,7.28,6.72Z"/><path class="cls-15" d="M423.34,297a38.46,38.46,0,0,1-4.62-4.44,37.83,37.83,0,0,1-4.24-4.79,79.45,79.45,0,0,1,8.86,9.23Z"/><path class="cls-15" d="M469.35,287.37a36.32,36.32,0,0,1-4.21,4.41,37.56,37.56,0,0,1-4.56,4,35.46,35.46,0,0,1,4.2-4.42A34.81,34.81,0,0,1,469.35,287.37Z"/><path class="cls-15" d="M421.51,406.59a25.27,25.27,0,0,1-3.24,4,25.54,25.54,0,0,1-3.61,3.61,49.86,49.86,0,0,1,6.85-7.57Z"/><path class="cls-15" d="M468.63,414.25a31.6,31.6,0,0,1-7.9-7.4,47.72,47.72,0,0,1,4,3.66A48.46,48.46,0,0,1,468.63,414.25Z"/><path class="cls-15" d="M542.69,111.06s0-.11,0-.33,0-.54,0-1c0-.86,0-2.09,0-3.68,0-3.23,0-7.92-.06-13.86,0-11.89-.07-28.78-.11-48.88l.23.24-55,0h0l.26-.26c0,25,0,48.34-.05,67.7l-.21-.22,39.84.12,11.15.05,2.94,0,1,0-1,0-2.9,0-11.1.06-40,.11h-.22v-.22c0-19.36,0-42.65,0-67.7V43.1h.26l55,0h.23v.23c0,20.16-.09,37.1-.12,49,0,5.92,0,10.59-.06,13.81,0,1.57,0,2.79,0,3.63,0,.4,0,.7,0,.93S542.69,111.07,542.69,111.06Z"/><path class="cls-15" d="M533.64,102.68s0-.09,0-.25,0-.43,0-.74c0-.66,0-1.61,0-2.82,0-2.49,0-6.08-.06-10.61,0-9.09-.07-22-.12-37.19l.24.24-37.87,0,.26-.25V65.23c0,4.6,0,9.1,0,13.44,0,8.68,0,16.76,0,24l-.21-.21,27.48.11,7.66.06,2,0,.71,0s-.22,0-.66,0l-2,0-7.61,0-27.61.12h-.21v-.22c0-7.25,0-15.33,0-24,0-4.34,0-8.84,0-13.44V51.08l.26-.27,37.87,0h.24v.23c0,15.29-.09,28.22-.12,37.34,0,4.51,0,8.08-.06,10.56,0,1.19,0,2.12,0,2.78l0,.7A1.66,1.66,0,0,1,533.64,102.68Z"/><path class="cls-15" d="M542.69,254s0-.22,0-.63,0-1,0-1.82c0-1.62,0-4,0-7,0-6.14,0-15.07-.07-26.3,0-22.44-.07-54-.12-90.78l.25.24-55,0h0l.26-.26c0,49.29-.06,94-.08,126.57l-.18-.19,40.16.1,11,0,2.86,0,1,0-1,0-2.83,0L528,254l-40.27.1h-.19V254c0-32.58-.05-77.28-.07-126.57v-.26h55.47v.25c-.05,36.8-.09,68.47-.12,91,0,11.2-.05,20.11-.07,26.24,0,3,0,5.39,0,7,0,.78,0,1.37,0,1.79S542.69,254,542.69,254Z"/><path class="cls-15" d="M533.64,246.94s0-.19,0-.56,0-.92,0-1.63c0-1.44,0-3.54,0-6.27,0-5.47,0-13.4-.08-23.35,0-19.88-.06-47.78-.11-79.94l.25.25H495.77l.26-.26c0,44.68-.07,84.78-.09,111.75l-.17-.17,27.79.1,7.47,0,1.94,0h.67s-.21,0-.64,0l-1.91,0-7.43,0-27.89.1h-.17v-.18c0-27-.06-67.07-.09-111.75v-.26h38.38v.25c0,32.23-.09,60.19-.12,80.12,0,9.92,0,17.83-.07,23.29,0,2.7,0,4.78,0,6.22,0,.69,0,1.22,0,1.59S533.64,246.94,533.64,246.94Z"/><path class="cls-15" d="M542.69,414.26s0-.22,0-.63,0-1,0-1.82c0-1.62,0-4,0-7,0-6.14,0-15.07-.07-26.3,0-22.44-.07-54.05-.12-90.79l.25.25h-55l.26-.26c0,49.3-.06,94-.08,126.58l-.18-.19,40.16.1,11,.05,2.86,0c.65,0,1,0,1,0l-1,0-2.83,0-10.91,0-40.27.1h-.19v-.18c0-32.58-.05-77.28-.07-126.58v-.26h.27l55,0h.25v.24c-.05,36.81-.09,68.48-.12,91,0,11.2-.05,20.11-.07,26.24,0,3,0,5.38,0,7,0,.78,0,1.37,0,1.79S542.69,414.26,542.69,414.26Z"/><path class="cls-15" d="M533.64,407.24s0-.19,0-.56,0-.92,0-1.63c0-1.44,0-3.55,0-6.27,0-5.47,0-13.4-.08-23.35,0-19.88-.06-47.78-.11-79.94l.25.25H495.77l.26-.26c0,44.68-.07,84.78-.09,111.75l-.17-.17,27.79.1,7.47,0,1.94,0h.67s-.21,0-.64,0l-1.91,0-7.43,0-27.89.1h-.17v-.18c0-27-.06-67.07-.09-111.75v-.26h38.38v.26c0,32.23-.09,60.19-.12,80.11,0,9.93,0,17.84-.07,23.3,0,2.7,0,4.78,0,6.21,0,.7,0,1.23,0,1.6S533.64,407.24,533.64,407.24Z"/><path class="cls-15" d="M496.65,102.66a36.77,36.77,0,0,1-4.69,4.16,38.26,38.26,0,0,1-5,3.76,37.33,37.33,0,0,1,4.7-4.16A37.82,37.82,0,0,1,496.65,102.66Z"/><path class="cls-15" d="M543,110.06a22.23,22.23,0,0,1-4.82-3.27,21.83,21.83,0,0,1-4.17-4.06c.1-.1,2,1.64,4.5,3.66S543.08,109.94,543,110.06Z"/><path class="cls-15" d="M541.87,45a27.34,27.34,0,0,1-4.15,3.34,27.87,27.87,0,0,1-4.45,2.92,26.07,26.07,0,0,1,4.15-3.34A27.05,27.05,0,0,1,541.87,45Z"/><path class="cls-15" d="M495.93,50.22a18.89,18.89,0,0,1-4.55-2.56,18.93,18.93,0,0,1-4-3.34,42.29,42.29,0,0,1,4.31,2.91A42.62,42.62,0,0,1,495.93,50.22Z"/><path class="cls-15" d="M495.57,135.35a14.85,14.85,0,0,1-4.61-3.77,14.6,14.6,0,0,1-3.17-5c.14-.08,1.4,2.27,3.56,4.69S495.67,135.22,495.57,135.35Z"/><path class="cls-15" d="M542,127.33a28.92,28.92,0,0,1-3.9,3.77,27.93,27.93,0,0,1-4.24,3.38,28.27,28.27,0,0,1,3.9-3.77A28.29,28.29,0,0,1,542,127.33Z"/><path class="cls-15" d="M495.55,247.52c.09.13-1.74,1.45-3.81,3.29s-3.61,3.48-3.73,3.38a15.78,15.78,0,0,1,3.39-3.77A15.5,15.5,0,0,1,495.55,247.52Z"/><path class="cls-15" d="M541.14,253.84a23.28,23.28,0,0,1-3.81-3.17,24,24,0,0,1-3.47-3.55,47,47,0,0,1,7.28,6.72Z"/><path class="cls-15" d="M496.49,297a38.46,38.46,0,0,1-4.62-4.44,37.83,37.83,0,0,1-4.24-4.79,79.45,79.45,0,0,1,8.86,9.23Z"/><path class="cls-15" d="M542.5,287.37a36.32,36.32,0,0,1-4.21,4.41,36.71,36.71,0,0,1-4.56,4,35.46,35.46,0,0,1,4.2-4.42A34.81,34.81,0,0,1,542.5,287.37Z"/><path class="cls-15" d="M494.66,406.59a25.27,25.27,0,0,1-3.24,4,25.54,25.54,0,0,1-3.61,3.61,49.86,49.86,0,0,1,6.85-7.57Z"/><path class="cls-15" d="M541.78,414.25a31.6,31.6,0,0,1-7.9-7.4,47.72,47.72,0,0,1,4,3.66A48.46,48.46,0,0,1,541.78,414.25Z"/><rect class="cls-6" x="392.09" y="206.86" width="12.46" height="55.36" rx="5.97"/><path class="cls-5" d="M400.85,248.62a2.1,2.1,0,1,0-3,1.87v2.43a.94.94,0,0,0,.94,1h0a.94.94,0,0,0,.94-1v-2.43A2.09,2.09,0,0,0,400.85,248.62Z"/><rect class="cls-6" x="398.15" y="225.5" width="34.31" height="6.62" rx="3.17"/></g><g id="Box"><rect class="cls-8" x="253.6" y="384.17" width="122.66" height="47.71"/><path class="cls-4" d="M286.5,384.17c.17,0,0,17.41,0,17.41h-9.08V384.17Z"/><g class="cls-14"><rect x="314.93" y="384.17" width="61.33" height="47.71" transform="translate(691.18 816.06) rotate(180)"/></g><rect class="cls-8" x="333.31" y="401.32" width="122.66" height="31.43"/><path class="cls-4" d="M366.21,401.32c.18,0,0,11.46,0,11.46h-9.08V401.32Z"/><g class="cls-14"><rect x="394.64" y="401.32" width="61.33" height="31.43" transform="translate(850.61 834.06) rotate(180)"/></g><rect class="cls-2" x="337.05" y="422" width="16.42" height="8.73"/><rect class="cls-2" x="356.5" y="422" width="8.21" height="8.73"/></g></g></svg>