<svg xmlns="http://www.w3.org/2000/svg" viewBox="0 0 163.13 142.9"><defs><style>.cls-1{fill:#e8e9e7;}.cls-2{fill:#170c04;}.cls-3{fill:#583e1e;}.cls-4{fill:#7d592b;}.cls-5{fill:#a08b7c;}.cls-6{fill:#8b786b;}.cls-7{fill:#ac9a8c;}.cls-8{fill:#bc8540;}.cls-9{fill:#331f09;}.cls-10{fill:#221206;}.cls-11{fill:#5a5550;}.cls-12{fill:#cab49e;}.cls-13{fill:#110903;}.cls-14{fill:#8a622f;}.cls-15{fill:#fff7b9;}.cls-16{fill:#948474;}</style></defs><g id="Layer_2" data-name="Layer 2"><g id="OBJECTS"><path class="cls-1" d="M160.54,133.24c0,5.34-35.94,9.66-80.27,9.66S0,138.58,0,133.24s35.94-9.66,80.27-9.66S160.54,127.9,160.54,133.24Z"/><path class="cls-2" d="M93.23,101.61a101.8,101.8,0,0,1,1.93,16.14c.15,2.84.2,5.81.07,8.68-.06,1.38-1,5.19.13,6.24.64.63,5.69,1.25,6.54.93s.77-1.07.67-2a59.77,59.77,0,0,1-.73-6.33,86.66,86.66,0,0,0-1-10.08c-.52-4.28-.38-8.39-3.81-11.82"/><path class="cls-3" d="M94.87,129.65c-.1,1.26-.05,2.49.49,3s5.69,1.25,6.54.93.77-1.07.67-2a2.91,2.91,0,0,0,0-.31c-.22-.12-.44-.23-.67-.33C99.57,130,97.22,130.16,94.87,129.65Z"/><path class="cls-4" d="M38,88.65c-3,5.28-5.12,12-4.25,18a34,34,0,0,0,2.51,9.26c.65,1.43,1.79,2.63,2.46,4s.71,2.72,1.76,4.09a36.52,36.52,0,0,0,4.84,4.87c-2.57.74-6,1.76-8-.25-.84-.87-1.45-2.55-2.7-3.17-.4-.2-1.14.3-1.85-.18a6.7,6.7,0,0,1-1.09-1.85c-1.17-2.77-1.35-5.72-2.55-8.52-1.3-3.06-2.6-6.16-3.71-9.28s-2-5.29-2.11-8.75c-.11-5.16-.23-12.69,6.88-12a44.62,44.62,0,0,1,5.92.82"/><path class="cls-5" d="M157.26.23c-.74.22-2.29,2-2.92,2.55-2.38,1.92-4.55,2.36-7.29,3.29-2,.68-5.55,1.69-6.86,3.53-1.6,2.24-.38,6.45.62,8.7l5.38,1.86c-1.54-6.11,7.18-12.73,10.67-16.8C157.69,2.41,159.36-.39,157.26.23Z"/><path class="cls-6" d="M157.6.16c-.42.69-.82,1.38-1.29,2a21,21,0,0,1-3.75,3.72c-2.38,2-5.91,4.32-7.37,7.14a5.84,5.84,0,0,0-.39,3.62c.06.5.45,2,.6,3.21l.79.27c-1.54-6.11,7.18-12.73,10.67-16.8C157.64,2.46,159.16,0,157.6.16Z"/><path class="cls-7" d="M140.81,18.3l1.24.43a12.05,12.05,0,0,1-.46-2.66c-.16-1.82-.78-3.9-.07-5.69a10.58,10.58,0,0,1,1.81-3,7.6,7.6,0,0,0-3.14,2.19C138.59,11.84,139.81,16.05,140.81,18.3Z"/><path class="cls-5" d="M122.53,7.65a15.85,15.85,0,0,1-6.66-5.05c-.31-.4-2-3.24-2.6-2.47-.38.46,1.53,3.48,1.81,4a29.15,29.15,0,0,0,5.29,6.77c2,2,4.33,3.5,6.27,5.52,1.41,1.48,1.89,4,3.41,5.13l6.31-4.73C135.19,11.06,127,9.59,122.53,7.65Z"/><path class="cls-6" d="M132.71,16.29c-3.54-3.74-9.26-5.37-13.12-8.87A39.56,39.56,0,0,1,113.41,0a.49.49,0,0,0-.14.11c-.38.46,1.53,3.48,1.81,4a29.15,29.15,0,0,0,5.29,6.77c2,2,4.33,3.5,6.27,5.52,1.41,1.48,1.89,4,3.41,5.13l4.29-3.22A15,15,0,0,0,132.71,16.29Z"/><path class="cls-8" d="M124,27.4s-.18-.84-2.22-.74c0,0-5.76-2.42-5.29-5,0,0,1.39-4.54,5.94-.83a8.69,8.69,0,0,0,3.34-.19,4,4,0,0,1,3-.46S131,16.72,134.13,16a8.21,8.21,0,0,1,2.69,0s.37,1.58,1,1.58a2,2,0,0,0,2.51-1s2.5-2.88,5.75,1.76a3.26,3.26,0,0,0,2.6,2.79s7.15-.1,8.91-.37c0,0,10.77-3.44,2.23,3.89A26.66,26.66,0,0,1,152,26.93a5.64,5.64,0,0,0-3,4.27,10.16,10.16,0,0,1,0,5.94s2.6,5.29-.56,8c0,0,.1,2.51-3.9,3.9,0,0-1.67,8,.1,14.48,0,0-.93-.56-1.86-3.34A8.53,8.53,0,0,0,143,63a7.18,7.18,0,0,1-1.4-3.44s-.27,0,.19,1.95c0,0-.65.19-1-1.85l-.19,2.59-.73-2.13v1.48l-.66-1.57-.74,1.76.74-3.62a25.52,25.52,0,0,0-.28-6.12A19.34,19.34,0,0,1,137,49.21s-1.12.18-3.9,5.66c0,0-8.08,14.29-13.64,18.84,0,0-4.27,15.22-14.58,18.1a65,65,0,0,1-2.69,7,36.49,36.49,0,0,0,2.51,7s2.13,2.32-.19,8.73c0,0,.47,7.61,1.12,9.19a35,35,0,0,1,.93,7,11.58,11.58,0,0,1,1.39,4.73s-5.11.93-7.71-.74a30.34,30.34,0,0,1-1.57-7.24,44.72,44.72,0,0,1,0-7.52s-.37-6.22-2.14-8.26c0,0-1.85-2.32-2.87-7.79,0,0-2-9.19-3.53-12.35a8.47,8.47,0,0,0-8.26-2.41S65.27,95.8,52.92,94c0,0-11.79-.92-13.92-2.69,0,0-7.8-2.22-9.84-4.08,0,0-5.66,9-7.42,13.18a24.89,24.89,0,0,1-1.67,6.87S19.7,119,22.48,124.2c0,0,3.16,4.45,3.06,7.89,0,0-6.86,1.39-8.63-1.4a5.1,5.1,0,0,0,0-3.71l-1.67-.18s-.93-.75-.56-4.64c0,0-1.48-17-2.87-21.35,0,0-.47-1.21.93-3.25,0,0,4.64-8.63,1.67-15.41,0,0-6-13.17-7.61-21.71,0,0-.56,7,0,10l-1.12-.83v3.24l-1.2-2.5V72S1.41,69.63,1,64.24c0,0-2.14-6.12,0-9.65,0,0,3.53-4.83,5.66-6.31,0,0,4.08-3.06,6.13-4.46,0,0,9.09-11.32,15.4-11.5,0,0,20.7.18,30,3.52,0,0,19.58,4.74,27,2.69a47.41,47.41,0,0,1,16.61-.74s12.34.09,18.65-6.4Z"/><path class="cls-9" d="M133.86,29.14a5,5,0,0,1-2.79.54c-1-.16-.39-1.27-.64-2-.34-.93-1.73-1.71-1.46-2.84.13-.54.53-.69,1-.76.33-.05,1.28.19,1.54,0,.7-.57-1.26-1.76.14-2.17s2.51,1.31,3.25,2.24c1.27,1.6,2.8,4.74-.37,5.5"/><path class="cls-10" d="M117.43,23.87a8.86,8.86,0,0,0,3.1,1.47,44.27,44.27,0,0,0,6,.53c.41-.51-2.72-3.88-3.19-4.4l-.57-.63-.31,0c-4.55-3.71-5.94.83-5.94.83A2.68,2.68,0,0,0,117.43,23.87Z"/><path class="cls-10" d="M157.61,20.72l-.65.07-.43.19c-1.62.67-4,.57-5.18,1.89-1.37,1.49.17,2.72.41,4.16l.19-.1a26.66,26.66,0,0,0,7.89-2.32C168.38,17.28,157.61,20.72,157.61,20.72Z"/><path class="cls-10" d="M137.1,49.15c-.85-1.28-1.12-2.37-2.49-3.2s-3-.89-4.48-1.32c2.25,1.8,3.32,4.52,4.79,7,1.47-2.32,2.09-2.42,2.09-2.42l.09.19Z"/><path class="cls-11" d="M148.42,45.12c2.76-2.34,1.13-6.67.67-7.73l-.47-.45c-2.68-2.6-8.36.34-9.68,3.48-2,4.64,1.84,7.54,5.71,8.54h.07C148.5,47.54,148.42,45.12,148.42,45.12Z"/><path class="cls-10" d="M102.28,98.69A45.16,45.16,0,0,0,104,94.47a15.82,15.82,0,0,1,.35-6.84c.56-2.27,1.42-4.43,1.18-6.86C103.27,86.61,101,92.26,102.28,98.69Z"/><path class="cls-10" d="M75.57,85.69c-4-.64-8-.81-12.07-1.14-3.46-.28-6.85-1.26-10.37-1.67-4.11-.49-8.63-.65-12.37-2.56-2-1-5.38-4.51-8-3.1-1.56.83-2.89,7.92-3.6,10,2,1.86,9.84,4.08,9.84,4.08C41.13,93.11,52.92,94,52.92,94c12.35,1.77,29-4.82,29-4.82a8.35,8.35,0,0,1,8,2.13C88.54,85.77,80.1,86.41,75.57,85.69Z"/><path class="cls-10" d="M22.48,124.2c-2.78-5.2-2.41-16.89-2.41-16.89a24.61,24.61,0,0,0,1.66-6.78,2.47,2.47,0,0,0-1.67.45c-.81.63-.78,1.91-.93,2.81-.31,1.79-1.37,5.07-3.81,3.23-.78-.59-1.07-1.72-1.58-2.56a6.48,6.48,0,0,0-1.45-1.69c1.23,6.08,2.39,19.39,2.39,19.39-.37,3.89.56,4.64.56,4.64l1.67.18a5.1,5.1,0,0,1,0,3.71c1.77,2.79,8.63,1.4,8.63,1.4C25.64,128.65,22.48,124.2,22.48,124.2Z"/><path class="cls-12" d="M18.16,107.72c1.87-1.77.31-6.37-2.39-4.77a3.71,3.71,0,0,0-1.69,2.86C14.28,107.43,16.89,108.92,18.16,107.72Z"/><path class="cls-13" d="M30.49,88.15c5.55-16.46.3-20.46.3-20.46,2.83,6.39-1.63,19.57-1.63,19.57A7.1,7.1,0,0,0,30.49,88.15Z"/><path class="cls-10" d="M8.4,47h0L6.61,48.28C4.48,49.76,1,54.59,1,54.59c-2.14,3.53,0,9.65,0,9.65C1.41,69.63,4.48,72,4.48,72V70.37l1.2,2.5V69.63l1.12.83c-.56-3,0-10,0-10S5.17,51.65,8.4,47Z"/><path class="cls-13" d="M86.43,86.7c-1.12-2.22,1.3-11.6,1.3-11.6C83.55,84.38,85,87.82,85,87.82l.81,1.3a9.08,9.08,0,0,1,4,2.22h0A11.51,11.51,0,0,0,86.43,86.7Z"/><path class="cls-10" d="M105.64,123.83c-.65-1.58-1.12-9.19-1.12-9.19,2.32-6.41.19-8.73.19-8.73a36.49,36.49,0,0,1-2.51-7l.08-.15c-.38-1,0-4-1.47-3.82s-2,4.58-2.34,5.74a17.47,17.47,0,0,1-1.63,4.75,10.72,10.72,0,0,1-2.27,2.19,14.43,14.43,0,0,0,2,4.19c1.77,2,2.14,8.26,2.14,8.26a44.72,44.72,0,0,0,0,7.52,30.34,30.34,0,0,0,1.57,7.24c2.6,1.67,7.71.74,7.71.74a11.58,11.58,0,0,0-1.39-4.73A35,35,0,0,0,105.64,123.83Z"/><path class="cls-12" d="M104.52,114.64c1.48-4.07,1.15-6.48.72-7.71a27.55,27.55,0,0,1-2.87-.25c-1.44-.32-2.87-1.81-3.23.44-.18,1.17,1.25,3,1.94,3.83s1.78,2.11,2.7,3.13a6,6,0,0,0,.75.69A.73.73,0,0,0,104.52,114.64Z"/><path class="cls-12" d="M105.64,123.83a6.5,6.5,0,0,1-.29-1.12,6.13,6.13,0,0,1-3.87-4.27c-1.13-3.31-1.91-6.74-3.2-10-.61-1.54-2.63-5.57-4.36-5.51a41.24,41.24,0,0,1,2.53,6c.86,3.15,2.71,4.77,2.78,8.26a6.37,6.37,0,0,1,0,2.22,1.22,1.22,0,0,1-.58.81,41.22,41.22,0,0,0-.08,5.59c.77-.89.85-2.31,1.87-2.87,1.22-.67,3.12.52,4.27.91l1,.38C105.68,124,105.64,123.83,105.64,123.83Z"/><path class="cls-12" d="M106.43,128.48c-.11-1.07-.28-2.09-.43-2.91-1.42-.61-3-.68-3.15,1.41A2,2,0,0,0,106.43,128.48Z"/><path class="cls-14" d="M127.2,43a15.61,15.61,0,0,1-2-11s.25-2.35-.43-3.22a14.22,14.22,0,0,1-.68,3.77A9.41,9.41,0,0,0,127.2,43Z"/><path class="cls-13" d="M138.4,61.83l.74-1.76.66,1.57V60.16l.73,2.13.19-2.59c.37,2,1,1.85,1,1.85-.46-1.95-.19-1.95-.19-1.95A7.18,7.18,0,0,0,143,63a8.53,8.53,0,0,1-.19-2.88c.93,2.78,1.86,3.34,1.86,3.34-1.63-6-.33-13.29-.12-14.34a7.82,7.82,0,0,0-2.45-.26c-1-.06-1.86.19-2.85.07-.62-.07-2.51-1.2-2.1.3v.1a20.64,20.64,0,0,0,1.77,2.72,25.52,25.52,0,0,1,.28,6.12Z"/><path class="cls-10" d="M146.76,41.31c-.36-.71-1.46-.89-2.08-1.31-.31-.21-1.38-1.91-1.43-.72,0,.81,1,1.23,1.64,1.42.32.1.64.18,1,.31.14.06.92.63.95.62s0,0,0,0a1,1,0,0,0-.3-.67"/><path class="cls-10" d="M149,39.44c-.17.21-.12.75-.32,1s-.49.45-.51.86c.14-.15.35-.27.5-.41a1.89,1.89,0,0,0,.69-.91C149.41,39.7,149.36,39,149,39.44Z"/><path class="cls-10" d="M148.9,44.65c-1.39.07-5.66.08-8.61-1.94a1.6,1.6,0,0,1-.8-1.6,3.67,3.67,0,0,0-.3,2.88s.25-1,.68-.66a14.16,14.16,0,0,0,7.72,2.2c.39,0,.66,0,.79,0a1.5,1.5,0,0,0,0-.38A3.55,3.55,0,0,0,148.9,44.65Z"/><path class="cls-13" d="M138.88,30.73c.24-1-.59-1.7-.8-2.63s.22-1.84-.18-2.59c-.3-.56-1-1-1.44-1.52s-1.25-1.64-1.39-.38c-1-.07-1.56-1.77-2.67-1.74s.29,1.82.6,2.58.15,1.55.42,2.26c.33.87.94.77.32,1.71-.51.79-3.14,2.95-1,3.51.68.17,1.43-.41,2.11,0,.53.33.7,1.05,1,1.55a25.28,25.28,0,0,0,2.2,4.06,30.05,30.05,0,0,1,0-3.26C138,32.88,138.6,31.94,138.88,30.73Z"/><path class="cls-13" d="M148.6,34.47c-.09.53,0,1.5-.63.81a3.88,3.88,0,0,1-.52-1.45,28.1,28.1,0,0,1-.59-2.9,25.18,25.18,0,0,1-.28-5.42c.07-1.15.33-3.06,1.66-3.47,2.5-.76,1.31,2.64,1.48,3.7.05.3.14.34.41.43.16,1.62-1.84,2.24-1.53,4.1a13,13,0,0,1,.57,2.12A13.94,13.94,0,0,1,148.6,34.47Z"/><path class="cls-10" d="M141.23,20.16c.45.44,1,1.13,1.62,1.15,0-.67-.25-1.31-.32-2a2.4,2.4,0,0,0-.69-1.64,4.23,4.23,0,0,0-1.33-1.31l-.16.16a2,2,0,0,1-2.51,1c-.27,0-.49-.28-.66-.6-.57.32-1.41.69-1.42.92,0,.51.73.25,1,.47s.24.83.5,1c.66.48,1.4-.17,2.06-.2.16,0,.23.41.36.42s.51-.23.56-.21A3.39,3.39,0,0,1,141.23,20.16Z"/><path class="cls-15" d="M129.49,26.79a2.66,2.66,0,0,1,3.71.89S130.23,30.6,129.49,26.79Z"/><path class="cls-13" d="M132.18,27.56a.83.83,0,1,1-.83-.83A.83.83,0,0,1,132.18,27.56Z"/><path class="cls-15" d="M131.11,27a.3.3,0,1,1-.59,0,.3.3,0,1,1,.59,0Z"/><path class="cls-13" d="M131,28.74c-1-.37-1.2-1.78-1.2-1.78a2.56,2.56,0,0,1,1.4-.58,3.29,3.29,0,0,0-1.74.41C129.77,28.25,130.39,28.72,131,28.74Z"/><path class="cls-2" d="M45.3,128.91A36.52,36.52,0,0,1,40.46,124c-1.05-1.37-1.07-2.67-1.76-4.09s-1.81-2.6-2.46-4a34,34,0,0,1-2.51-9.26,21.88,21.88,0,0,1,0-5.94c-.23.18-.46.39-.75.58-2.43,1.56-5.36,4-5.87-.61-.22-2,.62-4.28-1.49-2.76a7,7,0,0,0-1.89,2.49,44.38,44.38,0,0,0,1.69,5.24c1.11,3.12,2.41,6.22,3.71,9.28,1.2,2.8,1.38,5.75,2.55,8.52a6.7,6.7,0,0,0,1.09,1.85c.71.48,1.45,0,1.85.18,1.25.62,1.86,2.3,2.7,3.17C39.28,130.67,42.73,129.65,45.3,128.91Z"/><path class="cls-16" d="M34.79,96c-2.52.65-3.73,3.14-4.12,5.8-.53,3.57,1.24,2.72,2.89,1.12A27.82,27.82,0,0,1,34.79,96Z"/><path class="cls-8" d="M16.17,123.73a2.3,2.3,0,0,0-1.57,0c0,2.55.64,3.1.64,3.1l1.22.13C17.27,125.64,18.33,124.49,16.17,123.73Z"/><path class="cls-8" d="M24.9,128.8a4.61,4.61,0,0,1-3.63.87c-1.15-.13-2.75-.95-4-.69a6.25,6.25,0,0,1-.36,1.71c1.77,2.79,8.63,1.4,8.63,1.4A9.28,9.28,0,0,0,24.9,128.8Z"/><path class="cls-3" d="M34.08,123.55a1.94,1.94,0,0,0-2.2.31,4.72,4.72,0,0,0,.9,1.45c.65.44,1.32.06,1.75.15C35.13,124.75,35.49,124.15,34.08,123.55Z"/><path class="cls-3" d="M41.47,125.24a4.45,4.45,0,0,0-.33,1.63,41,41,0,0,0-4.8.42,9.15,9.15,0,0,0,1,1.37c2,2,5.4,1,8,.25A45.35,45.35,0,0,1,41.47,125.24Z"/><path class="cls-8" d="M107.07,131.84c-1,1-1.74.91-3.47.55-1.42-.3-2.86-.56-4.28-.85a27.28,27.28,0,0,0,.93,3.24c2.6,1.67,7.71.74,7.71.74A12.54,12.54,0,0,0,107.07,131.84Z"/></g></g></svg>