<svg xmlns="http://www.w3.org/2000/svg" viewBox="0 0 663.19 501.56"><defs><style>.cls-1{fill:#fec4c8;}.cls-2{fill:#fab6bb;}.cls-3{fill:#fe999f;}.cls-4{fill:#f99aa4;}.cls-5{fill:#908290;}</style></defs><g id="Layer_2" data-name="Layer 2"><g id="Layer_1-2" data-name="Layer 1"><polygon class="cls-1" points="16.53 293.57 9.68 348.43 16.53 358.71 110.82 365.57 163.96 379.29 157.11 480.43 165.68 490.71 206.82 492.43 223.96 423.86 254.82 482.14 294.25 487.29 304.53 478.71 309.68 406.71 352.53 413.57 434.82 405 438.25 446.14 421.11 478.71 422.82 487.29 455.39 487.29 487.96 459.86 525.68 403.29 517.11 374.14 527.39 369 578.82 398.14 541.11 487.29 558.25 492.43 597.68 489 613.11 477 655.96 408.43 628.53 348.43 652.53 305.57 655.96 168.43 566.82 87.86 237.68 87.86 148.53 135.86 98.82 183.86 66.25 254.14 54.25 286.71 16.53 293.57"/><path class="cls-2" d="M14,318.86s29.57,6.43,52.72,1.28,45-38.57,47.57-45,41.13-78.12,54-93.85c15.43-18.86,41.14-72,138.86-66.86s286.71,5.14,286.71,5.14l-36-32.14-306,3.86-92.57,28.28-38.57,45L95,205.71,73.11,252,56.39,276.43l-9,9-36,7.71Z"/><polygon class="cls-3" points="289.11 156.43 282.25 207 234.25 203.57 211.96 173.57 207.68 147 249.68 143.57 285.68 144.43 289.11 156.43"/><polygon class="cls-3" points="82.53 99 83.39 135 111.68 159 126.25 157.28 148.53 129.86 159.25 119.57 153.68 101.57 140.82 95.57 91.11 93.86 82.53 99"/><polygon class="cls-4" points="222.25 429 239.39 453 301.11 451.29 312.25 405.86 256.53 394.71 229.96 409.29 222.25 429"/><polygon class="cls-4" points="439.96 405.86 439.11 446.14 487.11 453 497.39 442.71 522.25 405.86 511.11 369.86 439.96 405.86"/><polygon class="cls-5" points="161.39 450.43 217.11 451.29 211.96 489.86 157.96 490.71 161.39 450.43"/><polygon class="cls-5" points="239.39 453 257.39 486.43 291.68 487.29 305.39 484.71 301.11 451.29 239.39 453"/><polygon class="cls-5" points="438.25 451.29 421.11 482.14 429.68 495.86 452.82 489.86 464.82 489 487.11 453 438.25 451.29"/><polygon class="cls-5" points="559.11 449.57 546.25 482.14 546.25 489 587.39 490.71 601.11 488.14 612.25 469.29 620.82 455.57 559.11 449.57"/><path d="M207.68,362.67,172.1,382.44l-7.33,4.07-10.84-1.7L59.11,369.94H22a22.06,22.06,0,0,1-22-22V303.27a22,22,0,0,1,22.38-22l20.4.32,2.1,0a9,9,0,0,1-.14,18H44.6l-3.28,0-19.23-.3H22a4,4,0,0,0-4,4v44.65a4,4,0,0,0,4,4H60.51l99.82,15.65,1.11.17,1.28-.71,36.22-20.12a9,9,0,1,1,8.74,15.74Z"/><path d="M659.14,397a28.87,28.87,0,0,1-2.2,25.7l-16,26.09-4.64,7.56-16.72,27.21A28.29,28.29,0,0,1,596.36,497l-42.31,1.46h-.59a16.94,16.94,0,0,1-15.78-23.1l26.47-67.85a6.79,6.79,0,0,0-2.86-8.33l-36.37-21.65-5.1-3-15.66-9.33-2.18-1.3-12.12-7.21A31.43,31.43,0,0,1,474.4,330l-.76-46.29a27.74,27.74,0,0,1,10.3-22.12l40.88-33.29a9,9,0,1,1,11.37,14L495.3,275.58a9.85,9.85,0,0,0-3.66,7.86l.76,46.3a13.56,13.56,0,0,0,6.66,11.51l71.44,42.52a24.73,24.73,0,0,1,10.42,30.34L570.27,441.4l-5.42,13.88L555,480.46l40.71-1.41a10.31,10.31,0,0,0,8.47-4.93l10.93-17.79,8.49-13.83,18-29.25a10.72,10.72,0,0,0,.82-9.59l-17.09-42.73a30.17,30.17,0,0,1,1.74-26.14l15.15-26.86a23,23,0,0,0,3-12l-3.8-117.76a18.9,18.9,0,0,0-6.15-13.3l-65.85-59.78a26.73,26.73,0,0,0-18-7h-.12L267.37,99.33a189.85,189.85,0,0,0-130.23,53A188.58,188.58,0,0,0,96.9,208.33L59.32,288.68V321.3a9,9,0,0,1-18,0V284.68l1.46-3.12L80.6,200.7a207.38,207.38,0,0,1,21.59-36.09q4.74-6.37,10-12.37a206.6,206.6,0,0,1,38.51-34.33c2-1.36,3.95-2.67,6-4q4-2.53,8-4.88A206.84,206.84,0,0,1,267.29,81.33l283.87-1.24h.2a44.71,44.71,0,0,1,29.8,11.34l.32.29,10.07,9.14,55.78,50.64a37,37,0,0,1,12,26.05l3.8,117.76a41,41,0,0,1-5.27,21.46l-15.15,26.86a12.25,12.25,0,0,0-.71,10.61Z"/><path d="M523.15,371.79a8.9,8.9,0,0,1-2.43,2.21l-.9.55c-1.83,1.1-6.16,3.64-12.51,7A383.46,383.46,0,0,1,447,407c-5.75,1.86-11.72,3.62-17.87,5.22a259.48,259.48,0,0,1-53.41,8.48A317.35,317.35,0,0,1,317.86,418c-6.3-.87-12.28-1.88-17.92-3A306.94,306.94,0,0,1,253,402.22a3.27,3.27,0,0,0-3.68,1l-7.86,9.83a47,47,0,0,0-7.77,14.14,46.08,46.08,0,0,0-1.79,6.76l-1.27,6.9-2.58,14-.47,2.54-4.13,22.39A24.78,24.78,0,0,1,199.12,500h-30a20.86,20.86,0,0,1-20.82-22.23l5.67-93,.57-9.34a9,9,0,0,1,5.83-7.88,8.66,8.66,0,0,1,2.39-.54,9.53,9.53,0,0,1,1.31,0,9,9,0,0,1,8.43,9.53l-.36,5.87-3.54,58.1-.85,14-1.49,24.41a2.88,2.88,0,0,0,.77,2.19,2.82,2.82,0,0,0,2.09.91h30a6.78,6.78,0,0,0,6.66-5.54l4-21.75,2.58-14,1.86-10.06a65.49,65.49,0,0,1,13.2-28.89l7.86-9.82a21.25,21.25,0,0,1,24-6.67c16.56,6.09,61,20,115.63,17.44C429,400.27,481.3,375.06,502,363.92c2-1.09,3.77-2.05,5.16-2.83l2.16-1.25h0c1.21-.7,1.88-1.11,1.94-1.15a9,9,0,0,1,11.89,13.11Z"/><path d="M292.9,497.52h-.48l-29.85-.6a27.29,27.29,0,0,1-24.26-15.71l-.08-.16-20.42-45.51a9,9,0,0,1,16.42-7.37l20.38,45.41a9.39,9.39,0,0,0,8.32,5.34l29.85.6a5.25,5.25,0,0,0,3.91-1.54,5.42,5.42,0,0,0,1.67-3.86V474L300,411.52a9,9,0,1,1,18,.48l-1.66,62.43a23.47,23.47,0,0,1-23.46,23.09Z"/><path d="M429.84,501.56A18.54,18.54,0,0,1,413.13,475l16.21-33.89a5.39,5.39,0,0,0,.51-2.41l-1-36.75a9,9,0,0,1,18-.5l1,36.77a23.49,23.49,0,0,1-2.26,10.66l-16.21,33.88a.49.49,0,0,0,0,.55.46.46,0,0,0,.48.24l26.35-1.19a5.44,5.44,0,0,0,4.13-2.2l52.1-70.09a8.36,8.36,0,0,0,1.28-7.43L504,370.84a9,9,0,1,1,17.22-5.26L531,397.39a26.48,26.48,0,0,1-4.06,23.43l-52.09,70.09a23.41,23.41,0,0,1-17.76,9.44l-26.35,1.19C430.42,501.56,430.13,501.56,429.84,501.56Z"/><path d="M310.44,448.27a7,7,0,0,1-7,7h0l-4.55,0-52.62-.27-18.16-.1h-1.61l-16.68-.09-42.08-.22-8.73,0a7,7,0,0,1,0-14h0l9.51.05,43.81.22,7.8,0,10.49.06,9.29,0,59.29.31,4.24,0A7,7,0,0,1,310.44,448.27Z"/><path d="M491.8,456.73h-.2L438,455.23a7,7,0,0,1,.19-14h.2l53.6,1.49a7,7,0,0,1-.19,14Z"/><path d="M640.91,448.77l-4.64,7.56a6.62,6.62,0,0,1-2.28.39h-.15l-18.7-.39-50.29-1.05-2.48,0a7,7,0,0,1,.15-14h.14l7.61.16,53.36,1.1,10.5.22A7,7,0,0,1,640.91,448.77Z"/><path d="M295.53,205a7,7,0,0,1-7,7H243.39a40.19,40.19,0,0,1-40.14-40.15v-22a17.59,17.59,0,0,1,17.57-17.57h54.57a19,19,0,0,1,19,19v14.29a7,7,0,0,1-14,0V151.28a5,5,0,0,0-5-5H220.82a3.57,3.57,0,0,0-3.57,3.57v22A26.18,26.18,0,0,0,243.39,198h45.14A7,7,0,0,1,295.53,205Z"/><path d="M164.68,105.57v14.28a7,7,0,0,1-14,0V105.57a5,5,0,0,0-5-5H91.11a3.58,3.58,0,0,0-3.58,3.57v22a26.19,26.19,0,0,0,24.64,26.1c.5,0,1,0,1.51,0h23.46a187.8,187.8,0,0,0-13.19,14H113.68a40.11,40.11,0,0,1-40.15-40.14v-22A17.6,17.6,0,0,1,91.11,86.57h54.57A19,19,0,0,1,164.68,105.57Z"/><path d="M585.67,104a7,7,0,0,1-5.47-11.35l7.85-9.9a28.43,28.43,0,0,1,42.81-2,3.69,3.69,0,0,0,5.18.14l6.69-6.28a9.45,9.45,0,0,0-.11-13.9L628.17,47.64a25.22,25.22,0,0,1-2.76-34.34l8.51-10.67a7,7,0,0,1,10.94,8.74L636.36,22a11.2,11.2,0,0,0,1.22,15.25L652,50.4a23.46,23.46,0,0,1,.28,34.48l-6.7,6.27a17.74,17.74,0,0,1-24.88-.68,14.4,14.4,0,0,0-21.71,1l-7.86,9.89A7,7,0,0,1,585.67,104Z"/><path d="M143,257.57v24.85a9,9,0,1,1-18,0V257.57a9,9,0,1,1,18,0Z"/></g></g></svg>